<?xml version="1.0" standalone="no"?>
<!DOCTYPE svg PUBLIC "-//W3C//DTD SVG 20010904//EN"
 "http://www.w3.org/TR/2001/REC-SVG-20010904/DTD/svg10.dtd">
<svg version="1.0" xmlns="http://www.w3.org/2000/svg"
 width="330.000000pt" height="280.000000pt" viewBox="0 0 330.000000 280.000000"
 preserveAspectRatio="xMidYMid meet">

<g transform="translate(0.000000,280.000000) scale(0.100000,-0.100000)"
fill="#000000" stroke="none">
<path d="M1280 2517 c-19 -5 -39 -16 -45 -24 -7 -9 -17 -13 -24 -9 -6 4 -14 0
-17 -8 -3 -9 -16 -17 -28 -17 -14 -1 -16 -3 -5 -6 12 -3 18 -21 22 -66 5 -55
3 -66 -18 -96 -18 -26 -22 -38 -13 -48 6 -7 13 -11 16 -9 2 3 17 -1 33 -9 29
-16 30 -35 3 -62 -9 -10 -13 -8 -17 8 -4 13 -10 18 -18 13 -7 -4 -10 -3 -6 3
3 5 -1 10 -10 10 -13 0 -12 -4 5 -18 25 -20 29 -61 7 -79 -12 -10 -18 -6 -35
22 -11 18 -20 29 -20 24 0 -6 -5 -5 -12 2 -8 8 -17 8 -31 1 -13 -7 -17 -8 -13
-1 3 6 -2 13 -11 16 -15 4 -14 4 2 3 11 -1 26 3 34 8 10 5 16 4 19 -3 6 -19
22 -14 22 8 0 11 5 20 11 20 5 0 7 6 3 13 -6 9 -4 9 7 2 21 -16 77 -20 63 -5
-11 11 -33 18 -66 19 -25 1 -22 26 7 55 14 14 25 30 25 37 0 6 -9 1 -20 -12
-11 -14 -19 -18 -20 -11 0 17 20 55 34 64 6 4 7 10 3 15 -16 15 -45 -42 -52
-101 l-7 -61 -15 45 c-16 51 -10 170 10 182 8 5 6 8 -5 8 -10 0 -18 5 -18 10
0 6 -9 10 -20 10 -11 0 -20 -5 -20 -11 0 -5 -6 -7 -12 -3 -10 6 -10 5 -1 -7 7
-8 10 -25 6 -37 -5 -21 -7 -22 -24 -6 -17 15 -19 14 -33 -20 -13 -32 -19 -36
-40 -30 -64 16 -85 11 -96 -19 -12 -37 -13 -57 -1 -38 8 12 12 12 25 2 22 -19
20 -34 -4 -28 -11 3 -18 1 -14 -4 3 -5 -4 -9 -15 -9 -12 0 -21 -4 -21 -9 0 -4
11 -6 24 -4 18 4 26 0 31 -16 3 -12 11 -21 16 -21 5 0 9 -7 9 -15 0 -8 -6 -15
-14 -15 -18 0 -39 27 -31 40 3 5 -1 10 -11 10 -15 0 -15 -2 0 -22 9 -13 20
-33 26 -45 11 -25 48 -38 85 -29 32 8 23 32 -19 51 -23 10 -26 14 -11 14 15 1
16 4 7 13 -32 32 11 39 51 8 15 -12 24 -27 20 -35 -3 -8 0 -15 5 -15 27 0 17
21 -28 62 -27 25 -51 40 -53 35 -6 -19 -27 4 -27 29 0 16 -4 23 -11 18 -6 -3
-15 0 -20 7 -14 22 -11 29 12 29 13 0 23 -10 31 -31 6 -18 16 -28 23 -25 19 7
52 -20 81 -66 20 -31 23 -42 13 -54 -6 -8 -8 -14 -3 -14 5 -1 -2 -7 -16 -15
-24 -14 -23 -15 29 -13 42 1 56 -2 67 -17 27 -36 17 -51 -58 -85 -94 -43 -199
-111 -231 -150 l-26 -30 -6 58 c-10 88 -13 85 -14 -12 l-1 -89 58 55 c31 30
74 63 94 72 21 10 36 23 35 29 -1 7 7 12 18 12 28 0 116 36 110 45 -5 8 57 38
92 45 13 2 25 0 28 -5 7 -11 -52 -31 -72 -23 -10 4 -14 2 -10 -4 4 -6 -7 -16
-23 -23 -17 -7 -29 -15 -27 -17 3 -2 28 6 57 17 86 34 66 17 -25 -22 -47 -20
-82 -32 -79 -27 10 16 -10 9 -61 -20 -66 -39 -147 -103 -153 -120 -3 -9 0 -11
8 -6 9 5 11 4 6 -4 -4 -6 -12 -9 -17 -5 -13 8 -49 -78 -43 -103 5 -16 0 -21
-26 -27 -79 -15 -80 -14 -82 72 l-2 77 -6 -85 -6 -85 -4 110 -4 110 -6 -110
-6 -110 -4 90 -4 90 -6 -90 c-5 -66 -7 -32 -8 129 -1 121 -4 217 -7 214 -3 -2
-7 -101 -10 -219 l-6 -214 -67 -34 c-65 -34 -72 -35 -210 -40 -127 -5 -145 -8
-158 -25 -12 -17 -12 -23 0 -40 11 -18 28 -22 112 -28 169 -12 293 -41 316
-73 4 -5 8 -59 9 -120 1 -75 4 -99 9 -75 4 19 8 27 9 18 0 -10 6 -18 11 -18 6
0 11 -19 11 -42 1 -36 4 -29 17 40 9 50 19 81 26 79 6 -2 10 -18 9 -35 -2 -19
3 -32 12 -36 8 -3 15 -13 15 -23 0 -9 14 -31 30 -48 26 -27 32 -43 40 -111 l9
-79 -3 72 c-1 40 2 73 6 73 4 0 9 -39 10 -87 l2 -88 5 70 6 70 8 -49 c4 -27 7
-85 7 -129 0 -74 -2 -83 -27 -109 -37 -39 -24 -44 20 -7 20 17 37 28 37 24 0
-4 23 14 52 39 44 39 54 43 72 34 20 -11 20 -10 6 8 -8 10 -10 16 -6 12 5 -4
25 2 45 13 l36 21 -30 -26 -30 -27 35 17 35 17 -24 -27 c-14 -14 -21 -26 -17
-26 5 0 3 -7 -4 -15 -15 -18 -34 -20 -24 -2 5 8 2 7 -9 -2 -10 -8 -15 -16 -13
-19 3 -3 -15 -27 -39 -54 -25 -28 -45 -54 -45 -58 0 -15 18 -21 26 -9 5 8 3 9
-6 4 -8 -5 -11 -3 -9 4 3 7 8 12 12 11 5 -1 41 30 82 68 40 39 94 82 119 97
62 37 209 81 275 84 60 2 95 16 85 33 -4 7 -3 8 4 4 6 -4 22 0 34 7 17 11 74
16 213 20 160 5 206 10 290 32 55 14 101 27 102 29 2 2 -17 2 -41 2 -26 -1
-39 -4 -33 -9 7 -5 0 -6 -16 -2 -19 4 -26 2 -22 -5 4 -7 -2 -9 -19 -4 -16 4
-26 2 -26 -5 0 -7 -17 -9 -47 -6 -37 4 -43 3 -28 -5 15 -7 -5 -9 -72 -7 -50 2
-90 -1 -87 -5 3 -4 -30 -7 -73 -6 l-78 2 70 6 c60 5 64 6 30 10 -64 8 -46 24
35 32 41 4 91 8 110 10 19 2 58 5 85 6 38 2 47 5 35 13 -12 8 -9 10 13 6 15
-2 27 -1 27 3 0 4 21 11 48 15 53 7 92 29 92 50 0 23 -44 81 -96 126 -55 46
-58 52 -68 93 -6 26 -5 27 9 13 8 -9 15 -20 15 -26 0 -20 74 -93 123 -121 31
-17 44 -30 35 -33 -7 -4 -2 -4 12 -1 14 3 37 1 50 -5 17 -6 19 -10 8 -10 -9
-1 -20 -6 -24 -13 -4 -7 -3 -8 4 -4 7 4 12 5 12 1 0 -3 -15 -15 -32 -26 -28
-17 -29 -19 -8 -14 51 15 80 36 85 63 15 66 16 77 7 63 -12 -16 -54 101 -46
127 5 13 4 14 -4 4 -7 -11 -10 -10 -16 3 -9 26 -7 42 4 25 19 -29 10 6 -10 38
-12 20 -25 30 -32 26 -8 -5 -9 -2 -5 10 4 10 3 15 -3 11 -6 -3 -10 -2 -10 4 0
24 21 19 44 -11 32 -43 95 -170 103 -209 8 -41 25 -32 40 22 7 24 20 56 28 72
9 15 14 31 11 36 -3 5 3 20 15 32 l20 24 -16 -30 -17 -30 20 22 c11 12 22 19
25 16 8 -7 -12 -46 -29 -56 -7 -4 -10 -15 -7 -23 4 -11 14 0 35 37 16 30 38
64 50 76 12 13 23 31 24 40 4 22 21 38 21 18 0 -8 -5 -15 -11 -15 -7 0 -7 -3
-1 -8 6 -4 10 -29 11 -57 0 -27 2 -72 5 -98 l4 -49 -75 -43 c-41 -24 -81 -44
-89 -44 -16 -1 -65 -51 -50 -51 6 0 52 23 103 50 96 52 133 65 81 29 -23 -15
-25 -19 -8 -14 12 3 24 2 26 -2 6 -10 -216 -115 -248 -117 -17 -1 -21 -4 -13
-13 7 -9 7 -13 0 -13 -6 0 -14 5 -17 10 -3 6 -11 10 -18 10 -6 0 -2 -7 9 -15
17 -13 17 -14 2 -15 -9 0 -20 4 -23 10 -3 6 -12 10 -18 10 -7 0 -3 -6 8 -12
18 -11 17 -12 -15 -24 -19 -7 -29 -13 -22 -13 23 -2 141 49 259 112 93 48 112
62 102 73 -8 9 -8 14 -1 14 6 0 13 -4 17 -9 3 -6 31 4 63 20 64 34 85 51 53
42 -11 -3 -21 -3 -21 0 0 6 61 43 73 45 5 0 16 9 25 19 9 11 26 17 37 15 14
-2 16 0 7 6 -9 6 -1 12 27 20 38 12 39 13 39 58 0 56 12 73 13 18 0 -30 2 -34
9 -19 4 11 6 32 3 47 -12 64 123 214 151 169 3 -5 -22 -37 -57 -72 -34 -34
-52 -54 -39 -44 20 16 22 17 22 1 0 -9 -7 -19 -15 -22 -9 -4 -21 -16 -27 -28
-11 -21 -11 -21 11 -2 21 19 21 19 21 -6 0 -16 -9 -29 -25 -38 -14 -7 -25 -20
-25 -28 0 -14 12 -13 67 4 10 3 5 -2 -10 -11 -44 -25 -28 -40 39 -38 41 1 53
-1 39 -7 -11 -5 -63 -9 -115 -9 -52 -1 -102 -6 -110 -11 -11 -8 -9 -9 12 -6
14 2 44 0 67 -5 27 -6 56 -5 83 2 24 6 66 15 93 21 111 24 129 31 168 67 43
41 43 61 -1 61 -20 0 -23 3 -14 12 19 19 15 48 -8 48 -19 0 -19 1 -3 35 22 46
8 65 -37 48 -31 -12 -36 -6 -30 37 1 8 -8 2 -20 -13 -17 -22 -25 -25 -36 -17
-7 7 -18 9 -24 5 -5 -3 -10 -2 -10 3 0 14 38 45 47 39 5 -3 17 1 28 9 18 13
18 14 -8 14 -15 0 -27 6 -27 13 -1 6 -7 0 -15 -14 -10 -19 -24 -28 -50 -31
-19 -2 -35 -1 -35 2 0 10 36 41 52 45 39 9 57 18 52 26 -8 14 -44 10 -61 -6
-8 -8 -19 -13 -24 -9 -5 3 -19 -16 -31 -43 -14 -31 -23 -42 -25 -31 -2 9 8 35
22 59 21 33 29 39 37 28 8 -11 9 -10 4 4 -4 12 0 17 15 17 11 0 18 4 14 10 -7
11 -33 3 -57 -18 -16 -13 -17 -12 -15 14 1 16 6 32 12 36 5 4 1 10 -10 15 -13
5 -20 17 -20 33 0 20 -5 25 -26 25 -23 -1 -26 3 -25 30 1 29 0 30 -46 30 -32
0 -48 4 -48 12 0 7 -9 13 -20 13 -25 0 -70 -75 -74 -124 -2 -20 -6 -39 -10
-43 -3 -3 -6 -11 -6 -17 0 -5 16 5 35 24 22 21 35 28 35 19 0 -11 2 -11 9 -1
7 11 9 11 14 -2 4 -9 3 -16 -2 -16 -5 0 -11 -9 -14 -20 -8 -31 -1 -24 36 30
19 27 36 47 39 45 3 -3 8 1 12 10 4 10 2 14 -5 9 -8 -4 -9 1 -4 17 10 35 23
45 37 31 13 -13 -1 -47 -45 -108 -12 -18 -27 -40 -32 -49 -6 -10 -20 -19 -31
-19 -10 -1 -25 -5 -32 -10 -17 -10 -15 0 4 30 9 13 15 27 12 29 -2 3 -15 -14
-28 -37 -13 -22 -17 -37 -10 -33 8 5 11 3 8 -6 -3 -8 -11 -13 -17 -11 -7 1
-10 -2 -6 -7 7 -12 -15 -51 -29 -51 -5 0 -5 21 -1 48 4 26 7 73 6 105 -3 69 8
126 19 107 8 -12 25 33 21 57 -1 6 4 15 10 19 8 4 9 3 5 -4 -5 -8 -2 -10 8 -6
21 8 20 11 -4 24 -14 8 -26 8 -40 0 -14 -7 -20 -7 -20 0 0 16 -18 12 -39 -9
-11 -11 -22 -17 -25 -13 -3 3 -6 -5 -6 -18 0 -36 -22 -98 -36 -104 -8 -3 -17
8 -24 30 -9 28 -8 44 5 85 12 36 20 47 26 38 7 -11 9 -10 9 4 0 9 -4 17 -10
17 -5 0 -14 -8 -19 -17 -10 -17 -12 -17 -26 2 -12 15 -19 17 -32 9 -20 -13
-25 -32 -27 -116 -1 -72 -8 -78 -26 -22 -13 38 -4 137 9 115 6 -10 10 -9 15 4
9 23 8 25 -9 25 -8 0 -17 -11 -21 -25 -7 -28 -14 -31 -32 -13 -18 18 -22 5
-13 -43 9 -43 9 -43 10 -9 1 27 4 31 11 20 5 -8 10 -26 10 -40 0 -14 7 -37 15
-53 13 -25 12 -28 -4 -39 -11 -6 -17 -17 -14 -24 2 -6 -1 -15 -6 -19 -6 -3 -9
-11 -6 -16 4 -5 3 -9 0 -9 -11 0 -75 144 -75 170 0 20 2 22 10 10 8 -13 10
-12 10 3 0 34 17 8 23 -35 4 -24 10 -61 15 -83 7 -36 9 -38 15 -16 3 14 2 31
-4 37 -6 7 -13 38 -16 68 -5 44 -10 57 -26 62 -11 3 -23 1 -27 -6 -4 -6 -16
-10 -26 -8 -13 2 -20 -4 -22 -19 -2 -15 -10 -23 -23 -23 -12 0 -21 -9 -25 -25
-6 -23 -8 -24 -27 -10 -34 24 -50 19 -45 -14 4 -27 3 -28 -20 -20 -13 5 -28 9
-34 9 -11 0 -7 -52 7 -84 6 -14 5 -17 -3 -12 -9 5 -12 -9 -13 -51 -1 -66 -1
-60 -18 -135 -13 -60 -8 -98 12 -98 16 0 83 72 126 133 33 49 77 85 88 73 4
-3 -8 -28 -25 -54 l-33 -47 31 35 c16 19 30 28 30 21 0 -26 -50 -79 -79 -86
-17 -3 -50 -28 -78 -58 -44 -47 -50 -59 -57 -111 -3 -32 -3 -81 0 -110 8 -63
-5 -55 -18 11 -14 69 -19 170 -7 152 5 -8 9 -9 9 -4 0 6 -4 15 -9 20 -5 6 -18
42 -31 80 -12 39 -29 86 -38 105 -21 43 -22 144 -3 162 11 11 13 7 9 -22 -3
-19 -2 -55 2 -80 7 -40 8 -36 9 35 2 98 20 85 21 -15 1 -36 5 -83 10 -105 6
-28 7 -16 3 41 -6 90 2 148 18 123 5 -7 9 -36 10 -64 1 -60 6 -50 12 23 3 36
1 49 -5 40 -7 -10 -8 -8 -4 5 3 10 2 25 -3 35 -5 9 -14 29 -20 45 -6 15 -17
27 -25 27 -15 0 -38 -23 -35 -36 3 -21 -2 -35 -11 -29 -5 3 -10 20 -10 36 0
18 4 28 10 24 12 -7 13 5 1 23 -9 16 -54 7 -72 -14 -6 -8 -15 -11 -21 -8 -16
10 -38 -17 -38 -47 0 -26 -2 -28 -30 -22 -26 5 -30 3 -30 -17 0 -16 -4 -20
-15 -16 -8 3 -22 9 -30 12 -8 3 -15 1 -15 -5 0 -6 -16 1 -36 14 -20 13 -50 27
-68 30 -45 9 -105 -15 -124 -50 -10 -17 -21 -34 -27 -38 -6 -6 -6 -10 3 -14
20 -8 14 -81 -10 -124 -15 -28 -28 -39 -45 -39 -13 0 -23 5 -23 10 0 6 -10 10
-22 10 -22 1 -23 1 -4 15 29 22 8 18 -30 -6 -37 -23 -44 -31 -16 -23 14 5 15
4 2 -5 -9 -6 -18 -7 -24 -1 -6 6 -19 10 -30 9 -21 0 -21 0 -1 -9 l20 -9 -20 1
c-11 0 -31 4 -45 8 l-25 8 25 2 c14 1 19 4 12 7 -22 8 -64 -6 -56 -20 4 -7 4
-9 0 -5 -4 3 -15 21 -24 40 -34 68 -121 85 -220 44 -31 -13 -72 -27 -89 -31
-31 -6 -33 -5 -33 20 0 14 9 43 20 65 38 74 139 137 370 228 69 27 163 73 209
101 46 28 91 51 98 51 8 0 12 4 8 9 -3 5 5 17 17 25 12 9 18 16 12 16 -6 0
-21 -11 -34 -25 -26 -28 -51 -35 -28 -7 8 9 19 24 23 32 8 13 7 13 -10 0 -17
-14 -18 -13 -12 3 4 11 10 31 14 45 7 32 40 82 54 82 16 0 10 -34 -11 -60 -29
-37 -24 -46 6 -11 30 36 72 44 54 10 -6 -11 -26 -29 -43 -39 -18 -11 -27 -20
-22 -20 13 0 49 24 93 62 42 36 76 39 43 4 -23 -24 -23 -25 -2 -19 11 3 21 1
21 -4 0 -14 -46 -37 -62 -31 -7 3 -22 2 -33 -3 -17 -7 -16 -8 8 -8 42 -1 32
-18 -25 -40 -46 -17 -49 -20 -23 -20 17 0 48 8 70 19 22 11 45 19 50 20 22 0
56 32 47 43 -5 7 -12 24 -16 40 -7 29 -44 73 -53 63 -4 -3 -3 -6 1 -6 4 0 2
-9 -4 -20 -16 -29 -32 -25 -20 4 7 20 6 26 -9 31 -11 3 -21 15 -24 27 -5 16
-11 19 -31 14 -23 -6 -26 -3 -26 19 0 14 -5 25 -11 25 -7 0 -17 8 -24 17 -10
14 -16 15 -28 5 -12 -10 -15 -9 -20 8 -3 11 -12 20 -21 20 -9 0 -16 5 -16 10
0 6 -8 10 -18 10 -10 0 -22 3 -26 8 -10 10 -46 10 -86 -1z m40 -30 c0 -12 -4
-28 -9 -36 -8 -12 -12 -12 -25 -2 -15 13 -21 42 -11 52 2 3 13 5 25 6 14 1 20
-4 20 -20z m43 11 c5 -17 -3 -48 -13 -48 -12 0 -23 38 -15 50 9 14 22 13 28
-2z m42 -8 c8 -12 -13 -52 -24 -46 -10 7 -2 56 10 56 4 0 11 -4 14 -10z m-145
-31 c0 -17 -4 -28 -10 -24 -5 3 -10 17 -10 31 0 13 5 24 10 24 6 0 10 -14 10
-31z m180 -10 c0 -20 -15 -26 -25 -9 -9 15 3 43 15 35 5 -3 10 -15 10 -26z
m-206 -11 c9 -17 16 -43 17 -57 1 -23 3 -21 13 11 6 20 14 39 18 43 13 14 30
-39 25 -78 -4 -28 -3 -36 4 -26 5 7 9 34 8 59 -2 62 -1 72 11 65 6 -3 11 -18
11 -33 1 -18 3 -21 6 -9 3 10 10 16 16 14 16 -5 21 -52 7 -77 -6 -11 -7 -20
-1 -20 10 0 31 54 31 81 0 11 5 19 11 19 8 0 10 -17 7 -50 -3 -27 -4 -50 -2
-50 3 0 34 61 34 67 0 2 -5 1 -11 -3 -6 -3 -3 8 5 25 17 32 36 41 36 17 0 -8
-8 -17 -17 -20 -14 -6 -15 -9 -4 -15 15 -10 7 -81 -9 -81 -6 0 -10 -6 -10 -12
1 -7 9 -2 20 12 11 14 27 33 37 43 11 11 12 17 4 17 -16 0 -10 42 6 47 9 3 12
-8 11 -34 -1 -41 -18 -82 -42 -102 -9 -7 -13 -17 -10 -22 3 -5 0 -9 -5 -9 -21
0 -26 4 -24 20 2 9 0 10 -3 2 -3 -6 -11 -9 -16 -6 -7 4 -8 2 -4 -4 4 -7 2 -12
-4 -12 -6 0 -9 -8 -6 -18 4 -12 -1 -26 -14 -37 -20 -18 -20 -18 -21 11 -1 29
-1 29 -9 4 l-8 -25 -1 26 c-1 15 6 32 14 39 8 7 15 24 15 39 -1 25 -1 25 -15
-6 -8 -18 -16 -33 -18 -33 -2 0 -2 15 0 33 l3 32 -10 -31 c-13 -40 -35 -39
-55 3 -9 18 -20 31 -25 28 -5 -3 -16 5 -24 17 -12 17 -16 19 -16 6 0 -9 -3
-25 -7 -35 -6 -16 -5 -16 9 -5 14 11 18 10 27 -7 14 -25 14 -41 0 -41 -5 0 -7
6 -3 13 5 9 4 9 -6 0 -17 -16 -4 -32 20 -26 12 3 20 0 20 -7 0 -7 -7 -10 -15
-6 -8 3 -15 0 -15 -7 0 -7 -12 6 -25 28 -17 28 -23 48 -20 67 4 14 1 29 -4 33
-6 3 -11 25 -11 47 0 40 0 41 20 23 11 -10 20 -13 20 -8 0 6 -7 16 -15 23 -17
14 -20 30 -6 30 5 0 17 -14 25 -32z m-161 16 c8 -8 -3 -34 -14 -34 -5 0 -9 9
-9 20 0 19 11 26 23 14z m-5 -110 c2 -54 1 -57 -13 -40 -19 25 -21 110 -2 104
7 -3 13 -27 15 -64z m-53 46 c3 -5 8 -24 10 -41 4 -30 3 -31 -16 -13 -10 9
-19 28 -19 41 0 23 14 31 25 13z m559 -9 c11 -17 -5 -39 -24 -34 -16 4 -18 9
-9 24 10 20 24 24 33 10z m-620 -53 c13 -18 16 -19 16 -5 0 9 3 17 7 17 11 0
113 -108 113 -120 0 -16 -29 -24 -44 -11 -7 6 -16 8 -19 4 -4 -3 -7 0 -7 7 0
30 -45 79 -77 85 -24 4 -33 11 -33 25 0 27 25 25 44 -2z m646 2 c0 -11 -7 -20
-15 -20 -18 0 -19 12 -3 28 16 16 18 15 18 -8z m-396 -81 c-6 -10 -40 -6 -51
6 -5 4 -3 5 3 2 7 -4 14 3 18 16 6 21 7 21 21 3 8 -10 12 -23 9 -27z m-304 -4
c0 -8 -4 -15 -9 -15 -5 0 -11 7 -15 15 -3 9 0 15 9 15 8 0 15 -7 15 -15z m563
-28 c-6 -31 -56 -69 -79 -60 -8 3 -14 0 -14 -6 0 -6 8 -11 17 -11 15 0 14 -2
-4 -15 -11 -8 -33 -19 -48 -25 l-27 -10 26 31 c14 17 26 37 26 45 0 9 4 13 9
10 5 -4 21 8 35 25 31 37 35 24 5 -17 -11 -16 -5 -11 15 11 20 22 36 44 36 49
0 5 2 7 4 5 2 -2 2 -17 -1 -32z m228 9 c-14 -16 -51 -28 -51 -16 0 11 30 29
49 30 10 0 11 -3 2 -14z m-351 -37 c0 -39 -22 -65 -78 -93 l-33 -17 6 38 c11
65 15 71 47 82 17 6 29 13 26 16 -3 3 -17 1 -32 -4 -14 -6 -26 -8 -26 -5 0 8
44 22 67 20 19 -1 23 -7 23 -37z m-400 -29 c11 -7 5 -10 -22 -10 -21 0 -38 5
-38 10 0 13 40 13 60 0z m1553 -118 c-2 -38 -28 -91 -45 -92 -11 0 -10 59 3
103 7 28 15 37 27 35 13 -3 17 -13 15 -46z m149 3 c3 -14 1 -28 -3 -31 -5 -3
-9 -24 -9 -46 0 -23 -3 -39 -6 -35 -14 13 -63 -61 -69 -104 l-6 -44 21 55 c11
30 26 61 34 69 13 12 16 9 22 -24 4 -22 2 -51 -4 -67 -5 -15 -8 -36 -5 -47 5
-21 -33 -118 -43 -108 -7 7 14 77 27 92 5 5 9 14 9 19 0 24 -31 -37 -50 -96
-24 -75 -23 -71 -7 -61 20 13 49 14 41 2 -10 -16 29 6 46 26 17 20 111 66 122
59 5 -3 7 0 6 7 -2 7 2 13 7 14 6 0 24 10 40 23 48 37 105 72 105 64 -1 -17
-39 -54 -86 -84 -28 -18 -49 -38 -47 -44 2 -6 -11 -31 -29 -55 -18 -24 -40
-55 -49 -69 -9 -14 -47 -56 -85 -95 l-68 -69 -12 29 c-7 17 -13 54 -14 83 0
50 1 52 28 53 17 1 20 3 9 6 -9 2 -15 9 -12 13 3 5 16 5 31 0 33 -13 54 -13
34 0 -9 6 -10 10 -3 10 6 0 20 3 30 6 15 5 15 4 3 -5 -8 -6 -11 -11 -7 -11 18
0 65 31 100 68 29 29 35 41 24 45 -15 6 -82 -55 -72 -65 3 -3 -3 -11 -12 -19
-16 -13 -17 -12 -4 4 17 21 13 21 -34 2 -20 -9 -44 -13 -53 -11 -10 4 -29 -5
-45 -19 -22 -21 -27 -34 -27 -74 0 -27 7 -68 15 -92 11 -29 12 -46 5 -53 -6
-6 -10 -6 -11 0 -1 5 -2 14 -4 19 -1 6 -3 21 -4 35 -1 16 -4 21 -9 13 -5 -7
-7 29 -5 79 2 58 9 98 17 108 20 22 36 78 36 121 0 44 -9 49 -29 17 -13 -21
-13 -22 2 -9 15 12 17 10 16 -15 0 -16 -8 -49 -18 -74 -15 -35 -19 -40 -24
-25 -10 34 -6 198 5 235 12 40 29 55 40 37 5 -7 8 0 8 18 1 55 50 162 69 150
5 -2 11 -16 13 -30z m28 16 c-13 -25 -13 -34 0 -26 6 4 7 -1 3 -11 -6 -16 -8
-15 -16 4 -7 15 -6 26 3 37 17 21 23 19 10 -4z m-381 -53 c-1 -13 10 -50 25
-82 21 -47 24 -61 14 -67 -9 -6 -15 0 -19 19 -5 22 -6 20 -4 -9 4 -48 -11 -75
-32 -58 -44 37 -72 160 -38 172 14 6 55 -36 55 -56 0 -6 3 -8 6 -4 4 3 -3 22
-15 42 -25 42 -27 65 -6 65 9 0 14 -9 14 -22z m461 6 c0 -18 -57 -104 -70
-104 -4 0 -6 9 -3 20 3 11 10 20 16 20 6 0 7 3 4 7 -4 3 1 12 11 20 9 8 11 11
3 7 -10 -5 -12 -3 -6 7 24 41 45 52 45 23z m45 -43 c-4 -14 -15 -39 -26 -56
-17 -28 -19 -28 -19 -7 0 12 -7 25 -16 29 -13 5 -11 10 11 33 34 35 59 36 50
1z m-875 -12 c0 -11 -4 -17 -10 -14 -5 3 -10 13 -10 21 0 8 5 14 10 14 6 0 10
-9 10 -21z m29 -99 c1 -20 -1 -22 -9 -10 -5 8 -9 38 -9 65 l1 50 9 -40 c4 -22
8 -51 8 -65z m238 78 c11 -13 26 -40 33 -61 6 -21 22 -50 35 -65 l24 -28 -30
-11 c-27 -11 -29 -10 -29 13 0 17 4 23 13 18 6 -4 -5 11 -27 34 -21 22 -36 46
-34 54 3 7 -1 25 -9 41 -16 33 -4 35 24 5z m302 -8 c1 25 4 31 12 23 9 -9 8
-27 -2 -72 -14 -64 -25 -77 -32 -38 -4 19 -4 19 -6 -5 0 -14 5 -28 12 -30 16
-6 27 -190 11 -200 -6 -4 -20 -15 -30 -25 -11 -10 -13 -13 -5 -8 17 11 13 4
-25 -52 -19 -28 -24 -31 -34 -18 -11 13 -10 18 5 29 10 7 19 26 21 42 7 67 22
160 29 179 5 15 4 16 -3 6 -8 -12 -11 -11 -15 5 -3 13 -4 12 -4 -6 0 -74 -4
-123 -9 -118 -7 8 -27 124 -27 164 -1 43 23 100 34 82 7 -10 9 -10 9 2 1 11 4
10 16 -5 15 -19 15 -19 9 7 -4 15 -1 36 6 50 13 23 14 23 20 -12 l6 -35 2 35z
m-492 -12 c-3 -7 -5 -2 -5 12 0 14 2 19 5 13 2 -7 2 -19 0 -25z m33 -4 c0 -14
-4 -22 -10 -19 -5 3 -10 17 -10 31 0 14 4 22 10 19 6 -3 10 -17 10 -31z m-170
-20 c0 -27 -4 -43 -10 -39 -5 3 -10 24 -10 46 0 21 5 39 10 39 6 0 10 -21 10
-46z m36 -2 c6 -27 4 -31 -10 -26 -11 4 -16 18 -16 42 0 43 16 33 26 -16z
m948 16 l-29 -32 33 27 c56 45 67 34 27 -25 -29 -43 -125 -106 -125 -81 0 15
22 43 31 38 5 -4 9 3 9 14 0 22 55 91 73 91 6 0 -2 -14 -19 -32z m-681 -41
c16 -26 16 -32 3 -45 -18 -19 -32 -10 -56 38 -28 55 -25 61 11 20 l30 -35 -22
39 c-21 36 -21 38 -3 26 11 -7 28 -26 37 -43z m-510 1 c24 -25 35 -44 28 -46
-9 -3 -9 -8 2 -21 22 -25 39 -81 24 -81 -7 0 -6 -4 3 -10 13 -9 13 -10 0 -10
-13 0 -13 -1 0 -10 8 -5 11 -10 6 -10 -5 0 -2 -7 5 -16 15 -18 18 -138 6 -184
-4 -14 1 -9 11 12 l18 37 27 -27 c14 -15 41 -44 58 -65 18 -21 46 -45 63 -54
17 -9 64 -48 104 -86 78 -76 91 -110 49 -126 -49 -19 -225 -42 -296 -39 l-74
3 36 43 c19 23 40 57 46 75 7 20 27 43 54 61 23 16 34 26 24 22 -51 -17 -64
-17 -71 0 -5 12 2 25 21 40 30 25 25 31 -9 13 -19 -10 -20 -9 -14 16 l7 27
-25 -28 c-21 -25 -24 -26 -23 -9 1 12 -3 19 -12 17 -9 -2 -11 3 -7 15 5 14 4
15 -4 7 -9 -9 -9 -17 0 -33 6 -12 8 -27 4 -33 -4 -6 -3 -8 2 -5 5 3 10 -4 10
-15 0 -14 -15 -27 -48 -44 -26 -13 -48 -21 -48 -17 0 5 20 16 45 26 25 11 43
23 40 28 -9 14 -39 -1 -87 -45 -17 -15 -22 -16 -29 -5 -5 8 -9 17 -9 22 0 4
-17 7 -37 7 -25 0 -33 -3 -25 -9 10 -6 -2 -13 -37 -25 -66 -21 -77 -20 -21 4
55 23 40 26 -24 4 -26 -9 -50 -14 -53 -10 -3 3 3 27 14 53 11 26 33 86 48 132
24 72 26 88 16 121 -13 45 -14 83 -2 75 11 -6 25 31 17 44 -4 5 -2 20 3 34 7
17 6 28 -2 37 -9 10 -9 11 1 5 7 -4 21 0 30 8 25 21 71 27 87 10 17 -16 62 -8
62 12 0 8 -13 19 -29 26 -23 9 -34 9 -54 -2 -14 -7 -37 -12 -50 -11 -14 1 -23
-2 -20 -7 4 -5 -3 -7 -14 -4 -20 5 -28 23 -10 23 6 0 10 9 10 20 0 14 11 26
33 35 54 24 77 19 120 -27z m264 10 c-3 -8 -6 -5 -6 6 -1 11 2 17 5 13 3 -3 4
-12 1 -19z m1000 -10 c2 -27 -19 -52 -69 -84 -45 -29 -49 -29 -41 -6 5 14 98
112 106 112 2 0 3 -10 4 -22z m-1097 -42 c9 -30 10 -29 4 7 -6 44 7 43 26 -2
9 -24 9 -34 -3 -57 -13 -24 -13 -33 -1 -67 18 -50 17 -52 -2 -37 -15 13 -44
73 -44 92 0 6 7 5 15 -2 8 -7 15 -8 15 -2 0 5 -7 15 -16 23 -24 19 -45 66 -38
84 9 22 31 2 44 -39z m119 -9 c1 -5 -4 -5 -10 -2 -7 5 -8 -8 -3 -41 l7 -49
-32 39 c-17 21 -31 49 -31 62 0 33 8 30 26 -8 l15 -33 -6 30 c-4 22 -3 26 5
15 8 -12 10 -10 11 10 0 23 1 23 9 5 5 -11 9 -24 9 -28z m-159 -25 c0 -21 -13
-6 -28 33 l-12 30 20 -24 c11 -13 20 -30 20 -39z m580 30 c0 -15 -9 -45 -20
-67 -11 -22 -20 -46 -19 -55 0 -9 4 -6 9 8 5 12 13 22 16 22 4 0 5 -3 1 -6 -3
-3 5 -31 19 -62 40 -91 23 -95 -34 -8 -29 44 -52 85 -52 90 0 6 5 4 10 -4 7
-11 10 -5 10 23 0 41 24 87 46 87 9 0 14 -11 14 -28z m-597 -75 c3 -22 2 -35
-4 -32 -5 4 -9 18 -10 33 0 15 -4 36 -9 47 -8 19 -9 18 -9 -4 -1 -13 -4 -22
-7 -18 -4 3 -3 19 1 34 l7 28 12 -25 c7 -14 16 -42 19 -63z m354 -24 c4 -96 3
-102 -21 -129 l-24 -29 -7 37 c-8 43 -4 70 10 66 10 -3 10 -6 0 -48 -4 -16 0
-12 10 10 13 29 14 42 5 77 -13 45 -5 126 12 121 6 -2 13 -48 15 -105z m89 71
c7 -27 -12 -79 -48 -130 l-20 -29 5 67 c7 94 48 154 63 92z m527 -43 c-18 -18
-8 -27 12 -11 8 7 14 20 13 29 -2 8 2 16 7 16 6 0 16 4 23 8 7 5 12 3 12 -6 0
-16 -52 -67 -71 -71 -22 -3 -72 -37 -95 -65 -19 -22 -52 -23 -38 0 3 5 9 7 14
4 12 -7 47 41 55 74 3 16 18 39 32 52 14 13 23 17 19 9 -4 -8 -1 -7 6 3 12 16
13 16 19 -5 3 -13 -1 -29 -8 -37z m-599 22 c-10 -40 -14 -41 -14 -5 0 18 5 32
10 32 6 0 8 -11 4 -27z m252 -54 c5 -41 4 -42 -8 -21 -8 12 -17 20 -20 17 -4
-5 -4 31 0 60 4 23 24 -17 28 -56z m-368 -270 c0 -89 -1 -93 -16 -71 -9 14
-16 48 -17 85 -3 87 -15 166 -31 206 -8 18 -14 50 -14 70 1 28 9 11 40 -80 34
-103 39 -127 38 -210z m-209 251 c0 -11 -3 -10 -14 4 -8 11 -15 29 -15 40 1
19 2 19 15 -4 8 -14 14 -32 14 -40z m113 -75 c9 -9 -26 87 -39 108 -3 5 0 8 8
5 18 -5 56 -82 65 -132 l7 -40 -31 25 c-36 28 -62 76 -68 127 -5 33 -2 31 21
-23 15 -33 31 -64 37 -70z m965 99 c3 -8 -4 -25 -17 -39 -29 -31 -41 -24 -14
7 l19 23 -23 -19 c-14 -12 -20 -26 -17 -37 4 -13 -7 -26 -40 -49 -51 -35 -55
-51 -6 -25 36 18 36 17 16 -21 -8 -16 -15 -39 -15 -52 0 -17 -12 -28 -56 -47
-31 -14 -58 -25 -61 -25 -2 0 14 26 37 57 22 31 38 63 35 71 -3 7 16 43 42 80
62 89 87 109 100 76z m-1801 0 c29 -8 58 -68 40 -83 -9 -8 -22 -6 -46 6 -27
13 -41 14 -72 6 -21 -6 -38 -7 -38 -2 0 4 -16 13 -35 19 -19 6 -35 15 -35 20
0 26 129 49 186 34z m1544 -34 c-6 -11 -13 -20 -16 -20 -2 0 0 9 6 20 6 11 13
20 16 20 2 0 0 -9 -6 -20z m378 -18 c-39 -41 -68 -94 -68 -123 0 -18 -8 -29
-24 -37 -24 -11 -24 -10 -11 16 19 40 35 93 25 87 -4 -3 -10 2 -14 10 -3 8 -2
14 2 13 4 -2 22 12 39 30 18 19 37 31 42 27 5 -3 13 0 16 6 4 5 10 8 13 5 3
-4 -6 -19 -20 -34z m-1238 2 c0 -8 -4 -12 -10 -9 -5 3 -10 13 -10 21 0 8 5 12
10 9 6 -3 10 -13 10 -21z m517 4 c-3 -8 -6 -5 -6 6 -1 11 2 17 5 13 3 -3 4
-12 1 -19z m793 14 c0 -4 -18 -26 -40 -47 -22 -21 -40 -44 -40 -50 0 -5 8 -1
18 11 22 27 129 103 117 84 -8 -13 -6 -13 8 -1 15 12 17 11 17 -5 0 -27 -92
-111 -131 -119 -19 -5 -29 -10 -23 -12 13 -4 6 -54 -10 -66 -7 -6 -4 -7 7 -3
9 3 17 1 17 -4 0 -12 0 -12 -75 -15 l-60 -3 48 24 c26 14 47 27 47 30 0 2 -9
0 -19 -6 -26 -14 -38 -13 -23 2 7 7 12 23 12 36 0 33 33 85 78 122 37 30 52
37 52 22z m-1219 -120 c6 -18 9 -36 6 -38 -8 -9 -75 91 -82 121 l-6 30 35 -40
c20 -22 41 -55 47 -73z m37 -15 c5 -23 13 -51 17 -62 6 -16 4 -14 -12 5 -11
14 -23 42 -27 62 -4 21 -18 51 -31 67 -38 44 -29 51 10 8 19 -22 38 -58 43
-80z m-1049 70 c6 -8 7 -17 3 -22 -4 -4 3 -4 16 -1 13 4 22 3 22 -3 0 -18 -15
-20 -40 -5 -15 8 -19 14 -10 14 12 0 11 4 -4 15 -11 8 -15 15 -9 15 6 0 16 -6
22 -13z m388 7 c19 -5 20 -8 8 -21 -11 -10 -19 -11 -32 -4 -17 10 -17 11 2 12
14 1 11 4 -10 9 -20 5 -23 8 -10 9 11 0 30 -2 42 -5z m538 -4 c3 -5 1 -10 -4
-10 -6 0 -11 5 -11 10 0 6 2 10 4 10 3 0 8 -4 11 -10z m524 -73 c21 -45 31
-148 12 -118 -7 11 -10 7 -14 -15 -2 -18 -5 -9 -6 23 0 29 -12 82 -26 119 -14
36 -25 69 -25 72 0 15 41 -41 59 -81z m50 31 c23 -44 23 -45 5 -72 l-18 -28
-16 48 c-9 27 -18 54 -20 59 -4 14 10 46 19 41 3 -3 17 -24 30 -48z m-977 33
c-10 -6 -8 -10 9 -14 13 -4 21 -8 18 -11 -3 -3 -23 1 -44 8 -36 13 -37 14 -15
19 41 7 46 7 32 -2z m867 -27 c23 -46 41 -134 41 -199 l0 -60 -24 58 c-13 31
-43 87 -66 124 l-42 67 27 24 c33 28 45 25 64 -14z m-1474 16 c3 -5 2 -10 -4
-10 -5 0 -13 5 -16 10 -3 6 -2 10 4 10 5 0 13 -4 16 -10z m350 -10 c4 -6 -11
-29 -32 -50 -21 -22 -37 -42 -35 -45 2 -5 -6 -17 -36 -50 -7 -8 -11 -15 -8
-15 15 0 -43 -54 -75 -69 -29 -14 -49 -16 -105 -10 -38 4 -87 14 -109 22 -22
9 -62 23 -90 33 -27 9 -59 20 -70 24 -11 4 43 5 120 3 228 -7 253 -5 302 24
47 27 55 53 28 89 -22 28 -18 34 19 34 19 0 38 5 41 10 8 13 42 13 50 0z
m2049 1 c13 -21 -122 -107 -140 -89 -2 3 5 17 17 32 14 18 27 25 37 21 9 -3
13 -3 9 1 -8 8 41 44 60 44 6 0 14 -4 17 -9z m-2244 -11 c0 -5 -2 -10 -4 -10
-3 0 -8 5 -11 10 -3 6 -1 10 4 10 6 0 11 -4 11 -10z m894 -30 c35 -39 45 -60
28 -60 -11 0 -57 50 -71 78 -18 35 3 26 43 -18z m-585 16 c-14 -15 -11 -26 9
-26 16 -1 16 -1 0 -11 -18 -10 -14 -37 6 -51 6 -4 1 -8 -11 -8 -23 0 -29 19
-24 72 2 13 -6 16 -41 12 -24 -2 -34 -1 -24 2 15 5 16 8 5 15 -9 5 5 8 38 6
33 -1 48 -6 42 -11z m-651 -3 c-10 -2 -26 -2 -35 0 -10 3 -2 5 17 5 19 0 27
-2 18 -5z m688 -2 c-4 -5 -1 -12 4 -14 6 -3 5 -4 -2 -3 -15 3 -23 26 -8 26 6
0 9 -4 6 -9z m-436 -16 c11 -14 10 -14 -11 -7 -13 5 -30 7 -38 4 -8 -3 -11 0
-7 7 10 16 41 14 56 -4z m161 -4 c13 -11 21 -22 18 -26 -10 -10 -56 15 -56 31
0 19 10 18 38 -5z m357 -16 c20 -5 23 -8 11 -16 -7 -5 -21 -8 -29 -8 -10 0 -8
3 5 9 17 7 17 9 3 9 -27 1 -28 1 -26 -1 3 -5 -36 -48 -43 -48 -4 0 -5 9 -2 20
3 11 10 20 17 20 6 0 4 5 -4 10 -13 8 -13 10 1 10 9 0 20 8 24 18 7 15 8 15
12 0 2 -9 16 -19 31 -23z m102 25 c0 -5 -5 -10 -11 -10 -5 0 -7 5 -4 10 3 6 8
10 11 10 2 0 4 -4 4 -10z m507 -57 l4 -48 -21 44 c-11 25 -18 51 -15 60 10 26
27 -4 32 -56z m-771 42 c-11 -8 -25 -15 -30 -15 -6 1 0 7 14 15 32 19 40 18
16 0z m2008 -4 c17 -6 15 -11 -20 -39 -41 -34 -89 -52 -138 -52 l-29 0 24 26
c23 26 113 74 134 73 6 0 19 -4 29 -8z m-2485 -5 c-2 -2 -24 -6 -48 -9 -29 -4
-40 -2 -30 4 13 8 88 14 78 5z m433 -29 c10 -19 9 -21 -4 -9 -9 7 -28 11 -45
7 l-28 -5 28 13 c15 7 24 17 20 22 -5 4 -2 5 4 1 7 -4 18 -17 25 -29z m993
-11 c27 -47 90 -224 82 -232 -9 -10 -89 9 -110 26 -19 16 -22 30 -26 109 -3
95 3 141 19 141 5 0 21 -20 35 -44z m585 40 c0 -2 -8 -10 -17 -17 -16 -13 -17
-12 -4 4 13 16 21 21 21 13z m-1310 -10 c0 -2 -8 -10 -17 -17 -16 -13 -17 -12
-4 4 13 16 21 21 21 13z m-822 -13 c-10 -2 -28 -2 -40 0 -13 2 -5 4 17 4 22 1
32 -1 23 -4z m1582 -37 c0 -6 -7 -2 -15 8 -8 11 -15 25 -15 30 0 6 7 2 15 -8
8 -11 15 -25 15 -30z m327 7 c-3 -10 -5 -4 -5 12 0 17 2 24 5 18 2 -7 2 -21 0
-30z m-1304 20 c-7 -2 -19 -2 -25 0 -7 3 -2 5 12 5 14 0 19 -2 13 -5z m712
-29 c19 -46 19 -55 0 -47 -19 7 -44 53 -38 71 8 22 22 13 38 -24z m-1388 20
c-3 -3 -12 -4 -19 -1 -8 3 -5 6 6 6 11 1 17 -2 13 -5z m603 -4 c0 -5 0 -13 -1
-16 -2 -17 27 -21 49 -6 24 15 26 15 48 -12 13 -15 24 -39 25 -54 l1 -27 7 25
c6 21 14 26 49 28 51 4 62 -13 36 -57 -19 -32 -52 -51 -90 -51 -17 0 -23 4
-18 13 5 8 2 8 -9 -2 -11 -9 -17 -10 -17 -2 0 6 -9 2 -21 -10 -23 -23 -51 -19
-86 14 -43 38 -20 96 32 83 14 -4 34 -21 45 -39 11 -17 20 -27 20 -20 0 6 -11
25 -25 41 -14 17 -25 35 -25 41 0 10 -14 15 -34 12 -5 -1 -4 5 4 13 11 14 9
16 -11 16 -19 0 -21 2 -9 10 19 13 30 13 30 0z m224 -21 c-18 -18 -26 -19 -70
-10 l-49 10 46 -4 c37 -3 50 0 64 15 10 11 21 18 24 15 2 -3 -4 -15 -15 -26z
m1319 -4 c-15 -19 -32 -35 -36 -35 -5 0 -6 -4 -3 -9 3 -4 -3 -16 -13 -26 -11
-9 -18 -25 -16 -35 3 -14 -6 -22 -38 -33 -26 -9 -41 -20 -39 -28 2 -8 0 -10
-4 -6 -11 11 -14 38 -3 31 5 -3 9 -1 9 5 0 5 -3 11 -7 14 -5 2 -3 3 3 1 6 -1
47 33 90 77 43 43 80 79 82 79 1 0 -10 -16 -25 -35z m-2188 15 c3 -5 1 -10 -4
-10 -6 0 -11 5 -11 10 0 6 2 10 4 10 3 0 8 -4 11 -10z m1377 -20 c22 -39 15
-39 -12 0 -12 17 -18 30 -13 30 4 0 16 -14 25 -30z m-1139 13 c-7 -2 -21 -2
-30 0 -10 3 -4 5 12 5 17 0 24 -2 18 -5z m697 -47 c0 -2 -7 -7 -16 -10 -8 -3
-12 -2 -9 4 6 10 25 14 25 6z m-351 -10 c-2 -1 -20 -8 -39 -14 -32 -11 -33
-10 -16 3 16 12 69 23 55 11z m-442 -118 c-2 -18 -4 -4 -4 32 0 36 2 50 4 33
2 -18 2 -48 0 -65z m53 64 c0 -15 -2 -15 -10 -2 -13 20 -13 33 0 25 6 -3 10
-14 10 -23z m78 -41 c12 -6 22 -16 22 -20 0 -15 -33 -22 -44 -11 -8 8 -6 9 7
4 13 -5 16 -2 11 10 -5 14 -18 19 -49 19 -5 0 -10 10 -10 23 0 22 1 22 20 5
11 -10 30 -24 43 -30z m1007 28 c-5 -15 -4 -19 4 -15 6 4 11 0 11 -11 0 -16
-1 -16 -16 -1 -9 9 -14 24 -11 32 9 24 19 19 12 -5z m-1158 -26 c-3 -10 -5 -4
-5 12 0 17 2 24 5 18 2 -7 2 -21 0 -30z m178 19 c-3 -3 -11 0 -18 7 -9 10 -8
11 6 5 10 -3 15 -9 12 -12z m272 12 c-3 -3 -12 -4 -19 -1 -8 3 -5 6 6 6 11 1
17 -2 13 -5z m-410 -26 c-3 -8 -6 -5 -6 6 -1 11 2 17 5 13 3 -3 4 -12 1 -19z
m191 -4 c7 -13 19 -16 51 -11 22 3 39 1 36 -3 -3 -5 1 -11 7 -13 7 -3 4 -6 -8
-6 -20 -1 -31 -31 -11 -31 6 0 7 -3 4 -6 -3 -4 -31 4 -62 16 -31 12 -54 25
-51 27 2 2 21 -3 41 -11 47 -20 56 -20 49 -1 -4 9 -19 15 -35 15 -16 0 -29 4
-29 10 0 5 -6 8 -12 6 -7 -1 -10 -1 -5 1 4 3 5 9 1 14 -3 5 -1 9 5 9 5 0 14
-7 19 -16z m62 6 c0 -5 -5 -10 -11 -10 -5 0 -7 5 -4 10 3 6 8 10 11 10 2 0 4
-4 4 -10z m178 -7 c-10 -2 -26 -2 -35 0 -10 3 -2 5 17 5 19 0 27 -2 18 -5z
m247 -3 c-3 -5 -12 -10 -18 -10 -7 0 -6 4 3 10 19 12 23 12 15 0z m416 -23
c-10 -9 -11 -8 -5 6 3 10 9 15 12 12 3 -3 0 -11 -7 -18z m-676 5 c-14 -3 0
-12 50 -28 60 -20 64 -22 26 -17 -24 3 -60 12 -80 20 l-36 15 19 -21 c11 -11
15 -21 9 -21 -5 0 -20 12 -34 27 -16 17 -18 24 -8 21 9 -4 22 -2 30 3 8 5 21
8 29 8 9 -1 7 -4 -5 -7z m311 -19 c-3 -3 -11 -1 -18 5 -9 7 -19 6 -32 -4 -20
-14 -20 -14 0 -15 11 0 14 -3 6 -6 -7 -3 -20 -2 -29 1 -14 6 -12 10 13 25 21
13 34 16 47 9 10 -5 16 -12 13 -15z m406 6 c-18 -12 -35 -19 -38 -16 -3 3 7
12 23 21 42 23 53 19 15 -5z m-566 -4 c35 0 51 -4 50 -12 -3 -17 -16 -29 -16
-15 0 7 -17 12 -42 13 -24 0 -61 7 -83 15 l-40 13 40 -7 c22 -4 63 -7 91 -7z
m354 0 c0 -8 8 -15 18 -16 38 -2 -35 -17 -83 -17 -27 0 -41 3 -30 5 11 3 22 8
25 12 6 7 51 29 63 30 4 1 7 -6 7 -14z m-833 -67 c23 -24 41 -34 51 -30 14 5
15 4 2 -10 -14 -15 -18 -14 -44 10 l-28 27 17 -35 18 -35 -22 20 c-13 11 -20
27 -18 37 3 9 -1 22 -9 29 -8 6 -14 21 -13 33 0 14 2 16 6 6 3 -8 21 -32 40
-52z m895 40 c-7 -7 -12 -8 -12 -2 0 14 12 26 19 19 2 -3 -1 -11 -7 -17z m65
15 c-9 -2 -15 -8 -12 -13 3 -4 -5 -6 -17 -2 -21 5 -21 6 -2 13 10 4 26 7 34 7
10 0 9 -2 -3 -5z m-904 -37 c10 4 35 -6 63 -25 30 -20 54 -29 68 -25 12 3 33
1 46 -5 18 -7 20 -10 8 -10 -28 -1 -21 -19 10 -24 17 -2 10 -5 -20 -6 -26 0
-65 7 -90 18 -49 21 -148 91 -148 105 0 5 11 0 23 -13 15 -13 30 -19 40 -15z
m592 24 c-3 -5 -14 -10 -23 -9 -14 0 -13 2 3 9 27 11 27 11 20 0z m-356 -16
c10 -9 -56 -3 -69 7 -11 7 -4 8 25 3 22 -4 42 -8 44 -10z m421 -17 c8 -3 -7
-6 -35 -7 l-50 -2 34 -14 c18 -8 32 -17 30 -18 -5 -5 -128 23 -154 35 -11 5
-42 10 -70 12 -43 3 -40 4 18 5 39 1 76 -3 87 -10 15 -10 27 -10 51 -1 17 7
37 9 45 6 8 -3 14 1 14 8 0 10 3 10 8 3 4 -6 14 -14 22 -17z m211 16 c-9 -4
-10 -8 -2 -12 6 -4 -6 -7 -27 -8 l-37 0 30 13 c17 7 35 13 40 13 6 0 4 -3 -4
-6z m90 -7 c5 3 9 1 9 -4 0 -10 -38 -46 -60 -56 -8 -4 -3 2 13 14 15 12 27 26
27 32 0 6 -9 3 -20 -7 -18 -17 -20 -17 -14 -2 10 27 1 20 -40 -29 -29 -35 -34
-45 -19 -40 24 8 27 -18 4 -38 -26 -22 -115 -71 -108 -59 4 6 32 25 62 42 51
29 74 51 40 37 -8 -3 -15 -1 -15 5 0 6 -8 5 -21 -2 -15 -8 -19 -8 -15 0 4 6 2
11 -4 11 -6 0 -8 5 -5 10 3 6 11 10 16 10 6 0 7 -5 3 -12 -5 -7 -3 -8 5 -3 8
4 9 11 4 16 -6 6 -27 2 -53 -10 -32 -14 -38 -20 -24 -24 11 -2 3 -4 -16 -4
-19 1 -53 -2 -75 -6 -34 -5 -32 -4 13 10 28 9 52 21 52 27 0 14 39 40 63 42 9
1 17 -3 17 -8 0 -6 7 -7 16 -4 8 3 12 2 9 -3 -3 -5 -1 -12 3 -15 5 -3 26 12
47 34 21 22 42 37 46 34 4 -2 11 1 15 8 6 9 9 9 12 0 2 -7 8 -10 13 -6z m-624
-2 c-3 -3 -12 -4 -19 -1 -8 3 -5 6 6 6 11 1 17 -2 13 -5z m423 2 c0 -2 -8 -10
-17 -17 -16 -13 -17 -12 -4 4 13 16 21 21 21 13z m-461 -25 c6 -10 7 -21 4
-25 -8 -8 10 -8 31 0 9 3 13 11 10 16 -4 6 1 8 12 4 11 -3 51 -6 91 -7 39 -1
78 -6 85 -11 8 -6 -20 -7 -72 -3 -54 4 -96 2 -115 -5 -17 -7 -49 -9 -78 -5
-53 8 -54 13 -5 25 l33 8 -35 2 c-29 1 -32 3 -15 10 31 13 44 11 54 -9z m410
-27 c-12 -15 -61 -44 -74 -44 -13 0 8 22 39 41 38 23 53 25 35 3z m-555 -75
c38 -23 46 -24 46 -3 0 10 8 15 23 14 43 -4 68 0 62 10 -3 6 -16 11 -28 11
-51 3 84 27 148 27 l70 -1 -50 -7 c-27 -5 -72 -9 -100 -10 l-50 -2 33 -14 c44
-19 32 -34 -29 -34 -32 0 -48 -4 -44 -10 4 -6 11 -8 16 -5 5 4 9 1 9 -5 0 -8
6 -8 21 0 11 6 25 9 32 7 7 -3 1 -9 -13 -15 -14 -6 -19 -11 -11 -11 8 -1 12
-3 9 -6 -3 -3 -17 -1 -31 4 -16 6 -38 7 -58 1 -18 -5 -35 -8 -37 -5 -3 3 9 8
27 11 21 4 29 10 23 16 -6 6 -17 6 -28 0 -11 -5 -44 -9 -74 -9 -32 0 -45 2
-32 6 22 6 22 6 -5 19 -16 7 -39 21 -53 32 -18 15 -8 12 35 -9 33 -16 74 -32
90 -36 17 -4 -3 8 -44 27 -41 18 -76 39 -78 45 -5 13 67 -15 121 -48z m436 57
c0 -2 -7 -7 -16 -10 -8 -3 -12 -2 -9 4 6 10 25 14 25 6z m-83 -12 c-3 -3 -12
-4 -19 -1 -8 3 -5 6 6 6 11 1 17 -2 13 -5z m-107 -34 c-20 -13 -43 -13 -35 0
3 6 16 10 28 10 18 0 19 -2 7 -10z m139 -6 c2 -2 -7 -4 -22 -4 -14 0 -29 5
-32 10 -6 10 42 4 54 -6z m71 10 c0 -2 -15 -11 -32 -20 -27 -14 -31 -14 -21
-2 7 8 10 17 7 20 -2 3 7 6 21 6 14 0 25 -2 25 -4z m363 -11 c-7 -2 -19 -2
-25 0 -7 3 -2 5 12 5 14 0 19 -2 13 -5z m-163 -8 c0 -5 -107 -55 -116 -55 -2
0 -4 4 -4 8 0 5 12 13 28 18 21 8 9 9 -52 6 -60 -4 -77 -2 -71 7 5 8 34 11 91
10 46 -2 87 0 90 4 8 8 34 9 34 2z m-312 -12 c-15 -2 -42 -2 -60 0 -18 2 -6 4
27 4 33 0 48 -2 33 -4z m-76 -36 c5 -8 14 -7 33 1 40 19 44 13 5 -8 -37 -20
-80 -29 -50 -10 12 7 11 10 -5 15 -47 15 -60 25 -25 19 19 -4 38 -11 42 -17z
m173 4 c25 -6 27 -8 10 -12 -29 -8 -106 2 -99 12 6 10 44 10 89 0z m-242 -8
c-7 -2 -21 -2 -30 0 -10 3 -4 5 12 5 17 0 24 -2 18 -5z m-281 -14 c15 -8 18
-8 14 0 -5 7 -1 9 8 5 9 -3 16 -10 16 -14 0 -4 12 -10 28 -13 15 -4 45 -17 66
-30 l39 -25 -44 -27 c-24 -16 -67 -46 -95 -67 -28 -21 -54 -38 -57 -38 -4 0
-7 50 -7 110 0 61 3 110 6 110 3 0 15 -5 26 -11z m617 2 c8 -5 -1 -8 -27 -7
-22 0 -38 4 -36 8 7 11 46 10 63 -1z m-440 -10 c40 6 76 8 79 5 3 -3 -8 -7
-24 -7 -28 -2 -28 -2 6 -9 l35 -7 -40 -2 c-30 -1 -36 -4 -25 -11 12 -8 12 -10
-5 -11 -15 0 -14 -3 8 -11 35 -13 214 4 278 26 63 22 60 11 -4 -12 -33 -13
-93 -23 -158 -27 l-104 -7 -78 36 c-42 20 -77 39 -77 42 0 3 8 0 18 -5 12 -6
44 -6 91 0z m211 -19 c-14 -2 -29 -8 -34 -13 -19 -17 -29 -9 -12 10 12 13 25
16 44 12 l27 -5 -25 -4z m197 2 c-3 -3 -12 -4 -19 -1 -8 3 -5 6 6 6 11 1 17
-2 13 -5z m3 -24 c-8 -5 -24 -9 -35 -9 l-20 0 20 9 c11 5 27 9 35 9 13 1 13 0
0 -9z m-317 -81 c-9 -9 -29 -15 -55 -18 -5 -1 -7 -7 -5 -13 1 -8 -6 -12 -17
-10 -10 2 -16 -1 -12 -6 3 -5 -25 -37 -62 -73 l-67 -64 65 68 c36 37 63 69 60
71 -8 7 49 48 58 42 4 -2 14 -1 22 5 20 12 26 11 13 -2z"/>
<path d="M1332 2360 c0 -19 2 -27 5 -17 2 9 2 25 0 35 -3 9 -5 1 -5 -18z"/>
<path d="M1297 2293 c4 -11 8 -12 13 -3 6 9 9 9 13 1 4 -8 5 -8 3 0 -1 7 -9
13 -18 15 -11 1 -15 -3 -11 -13z"/>
<path d="M1225 2289 c-4 -6 -5 -12 -2 -15 2 -3 7 2 10 11 7 17 1 20 -8 4z"/>
<path d="M1386 2268 c-3 -13 -2 -26 2 -30 4 -4 8 6 9 23 3 35 -2 38 -11 7z"/>
<path d="M1041 2262 c-1 -19 18 -52 29 -52 6 0 10 5 10 11 0 5 -4 8 -9 5 -5
-4 -14 6 -19 21 -6 16 -11 22 -11 15z"/>
<path d="M2250 1945 c0 -5 5 -17 10 -25 5 -8 10 -10 10 -5 0 6 -5 17 -10 25
-5 8 -10 11 -10 5z"/>
<path d="M2271 1884 c0 -11 3 -14 6 -6 3 7 2 16 -1 19 -3 4 -6 -2 -5 -13z"/>
<path d="M2760 1970 c-6 -11 -8 -20 -6 -20 3 0 10 9 16 20 6 11 8 20 6 20 -3
0 -10 -9 -16 -20z"/>
<path d="M2180 1886 c0 -2 8 -10 18 -17 15 -13 16 -12 3 4 -13 16 -21 21 -21
13z"/>
<path d="M2432 1840 c0 -19 2 -27 5 -17 2 9 2 25 0 35 -3 9 -5 1 -5 -18z"/>
<path d="M2805 1859 c-4 -6 -5 -12 -2 -15 2 -3 7 2 10 11 7 17 1 20 -8 4z"/>
<path d="M1667 1716 c-4 -10 -7 -25 -6 -34 0 -11 4 -9 10 7 5 13 8 29 6 35 -2
5 -6 2 -10 -8z"/>
<path d="M1510 1638 c0 -32 0 -32 16 -10 15 22 12 42 -7 42 -5 0 -9 -15 -9
-32z"/>
<path d="M1563 1658 c-5 -7 -7 -26 -3 -43 6 -29 7 -28 11 13 5 47 5 47 -8 30z"/>
<path d="M1613 1625 c0 -27 2 -38 4 -22 2 15 2 37 0 50 -2 12 -4 0 -4 -28z"/>
<path d="M1512 1579 c-7 -11 -11 -23 -9 -25 7 -7 29 24 25 36 -2 6 -9 1 -16
-11z"/>
<path d="M2889 1843 c-13 -16 -12 -17 4 -4 16 13 21 21 13 21 -2 0 -10 -8 -17
-17z"/>
<path d="M2173 1743 c-12 -24 -21 -43 -18 -43 7 0 47 70 43 78 -2 5 -13 -11
-25 -35z"/>
<path d="M2969 1663 l-24 -28 28 24 c25 23 32 31 24 31 -2 0 -14 -12 -28 -27z"/>
<path d="M3104 1648 l-19 -23 23 19 c12 11 22 21 22 23 0 8 -8 2 -26 -19z"/>
<path d="M3059 1613 c-13 -16 -12 -17 4 -4 16 13 21 21 13 21 -2 0 -10 -8 -17
-17z"/>
<path d="M3098 1514 c-39 -21 -35 -28 5 -8 37 19 44 24 31 24 -5 -1 -21 -8
-36 -16z"/>
<path d="M788 1218 c14 -18 101 -62 109 -55 2 3 -13 12 -34 21 -21 9 -49 24
-63 33 -22 16 -23 16 -12 1z"/>
<path d="M918 1173 c7 -3 16 -2 19 1 4 3 -2 6 -13 5 -11 0 -14 -3 -6 -6z"/>
<path d="M1524 1169 c-20 -23 -17 -23 26 -5 28 11 30 14 12 18 -13 4 -27 -1
-38 -13z"/>
<path d="M1003 1004 c16 -9 32 -13 35 -9 9 9 -19 25 -43 24 -16 0 -15 -2 8
-15z"/>
<path d="M1146 2427 c3 -10 9 -15 12 -12 3 3 0 11 -7 18 -10 9 -11 8 -5 -6z"/>
<path d="M898 2410 c-10 -9 -18 -21 -18 -26 0 -5 4 -3 9 5 7 11 13 11 32 1 13
-7 27 -18 31 -24 5 -7 8 -4 8 7 0 9 -7 17 -15 17 -9 0 -19 8 -23 18 -7 18 -8
18 -24 2z"/>
<path d="M940 2415 c0 -8 2 -15 4 -15 2 0 6 7 10 15 3 8 1 15 -4 15 -6 0 -10
-7 -10 -15z"/>
<path d="M1110 2420 c0 -5 5 -10 10 -10 6 0 10 5 10 10 0 6 -4 10 -10 10 -5 0
-10 -4 -10 -10z"/>
<path d="M1107 2370 c3 -11 7 -20 9 -20 2 0 4 9 4 20 0 11 -4 20 -9 20 -5 0
-7 -9 -4 -20z"/>
<path d="M611 2053 c0 -79 3 -143 7 -143 8 0 6 233 -2 270 -2 8 -4 -49 -5
-127z"/>
<path d="M734 2080 c0 -58 1 -81 3 -52 2 28 2 76 0 105 -2 28 -3 5 -3 -53z"/>
<path d="M753 2135 c0 -27 2 -38 4 -22 2 15 2 37 0 50 -2 12 -4 0 -4 -28z"/>
<path d="M2541 2034 c0 -11 3 -14 6 -6 3 7 2 16 -1 19 -3 4 -6 -2 -5 -13z"/>
<path d="M2412 2010 c0 -14 2 -19 5 -12 2 6 2 18 0 25 -3 6 -5 1 -5 -13z"/>
<path d="M2826 1983 c-6 -14 -5 -15 5 -6 7 7 10 15 7 18 -3 3 -9 -2 -12 -12z"/>
<path d="M1030 1980 c-8 -5 -10 -10 -5 -10 6 0 17 5 25 10 8 5 11 10 5 10 -5
0 -17 -5 -25 -10z"/>
<path d="M742 1915 c0 -16 2 -22 5 -12 2 9 2 23 0 30 -3 6 -5 -1 -5 -18z"/>
<path d="M2949 1713 c-13 -16 -12 -17 4 -4 16 13 21 21 13 21 -2 0 -10 -8 -17
-17z"/>
<path d="M2778 1443 c7 -3 16 -2 19 1 4 3 -2 6 -13 5 -11 0 -14 -3 -6 -6z"/>
<path d="M2346 1387 c3 -10 9 -15 12 -12 3 3 0 11 -7 18 -10 9 -11 8 -5 -6z"/>
<path d="M2336 1355 c5 -24 3 -27 -6 -15 -9 12 -10 9 -5 -13 4 -21 2 -27 -6
-21 -7 4 -10 2 -8 -5 7 -20 23 -13 33 15 5 16 4 34 -3 47 -9 20 -10 19 -5 -8z"/>
<path d="M2404 1264 c-18 -14 -18 -15 4 -4 12 6 22 13 22 15 0 8 -5 6 -26 -11z"/>
<path d="M2335 1230 c-11 -4 -33 -13 -49 -19 -16 -6 -26 -14 -23 -17 8 -9 74
15 87 32 14 16 13 16 -15 4z"/>
<path d="M583 1085 c0 -33 2 -45 4 -27 2 18 2 45 0 60 -2 15 -4 0 -4 -33z"/>
<path d="M2125 1130 c3 -5 8 -10 11 -10 2 0 4 5 4 10 0 6 -5 10 -11 10 -5 0
-7 -4 -4 -10z"/>
<path d="M1673 1073 c9 -2 23 -2 30 0 6 3 -1 5 -18 5 -16 0 -22 -2 -12 -5z"/>
<path d="M602 1050 c0 -14 2 -19 5 -12 2 6 2 18 0 25 -3 6 -5 1 -5 -13z"/>
<path d="M621 1034 c0 -11 3 -14 6 -6 3 7 2 16 -1 19 -3 4 -6 -2 -5 -13z"/>
<path d="M782 875 c0 -16 2 -22 5 -12 2 9 2 23 0 30 -3 6 -5 -1 -5 -18z"/>
<path d="M900 833 c-25 -26 -35 -39 -22 -29 12 11 22 15 22 11 0 -4 9 0 20 10
11 10 18 20 15 23 -3 3 0 11 6 19 26 31 0 9 -41 -34z m30 13 c0 -2 -8 -10 -17
-17 -16 -13 -17 -12 -4 4 13 16 21 21 21 13z"/>
<path d="M2340 550 c-14 -10 -22 -22 -18 -26 9 -8 68 15 68 26 0 17 -28 17
-50 0z"/>
<path d="M2213 510 c-7 -8 -41 -11 -97 -9 -47 2 -86 1 -86 -3 0 -3 -3 -14 -7
-24 -6 -17 -5 -17 17 -1 14 9 35 17 47 17 22 0 23 -3 23 -85 0 -69 -3 -86 -17
-94 -14 -8 -3 -10 42 -10 46 0 55 2 38 9 -21 9 -23 16 -23 95 0 84 0 85 25 85
13 0 28 -8 34 -17 9 -17 10 -17 16 -1 10 26 3 52 -12 38z"/>
<path d="M2982 500 c-5 -14 -12 -36 -16 -50 -7 -25 -7 -25 17 4 20 23 35 30
76 34 28 2 51 1 51 -2 0 -4 -32 -45 -71 -92 -39 -47 -69 -87 -68 -89 2 -1 46
-5 97 -6 100 -4 92 -8 108 54 5 20 4 20 -18 -6 -18 -21 -35 -29 -75 -34 -30
-3 -53 -2 -53 3 0 6 31 48 69 94 l69 85 -81 3 c-48 2 -84 8 -89 15 -4 7 -10 3
-16 -13z"/>
<path d="M195 491 c-103 -47 -79 -174 36 -196 46 -8 89 9 89 35 l0 21 -22 -21
c-72 -67 -160 54 -97 134 26 34 88 38 96 6 8 -30 23 -24 23 8 0 26 -3 28 -42
30 -24 1 -61 -6 -83 -17z"/>
<path d="M442 435 c-18 -41 -32 -78 -32 -83 0 -5 -7 -15 -15 -22 -24 -20 -18
-30 18 -29 17 0 26 3 20 6 -16 6 -17 35 -1 51 20 20 66 15 78 -9 7 -11 9 -27
6 -35 -4 -11 4 -14 36 -14 36 0 40 2 24 13 -9 7 -32 53 -51 102 -18 49 -37 91
-42 92 -5 2 -23 -30 -41 -72z m42 -7 c10 -38 7 -48 -12 -48 -27 0 -31 8 -19
41 14 35 23 37 31 7z"/>
<path d="M680 497 c-19 -10 -25 -20 -25 -47 0 -30 5 -37 43 -58 49 -27 60 -45
42 -67 -18 -22 -48 -18 -75 10 l-25 24 0 -33 0 -34 56 3 c97 6 126 66 54 112
-67 43 -72 47 -65 66 10 24 50 21 75 -5 l20 -22 0 30 c0 29 -3 31 -37 32 -21
1 -49 -4 -63 -11z"/>
<path d="M910 430 c-18 -44 -41 -92 -52 -105 l-19 -25 38 1 c21 0 32 3 26 6
-7 2 -13 12 -13 22 0 46 73 58 92 15 10 -21 9 -27 -3 -35 -9 -6 2 -9 36 -9 37
1 46 3 33 10 -9 6 -33 53 -53 105 -21 52 -41 95 -45 95 -4 0 -22 -36 -40 -80z
m50 -32 c0 -11 -7 -18 -18 -18 -28 0 -31 8 -20 42 10 29 12 30 25 13 7 -11 13
-27 13 -37z"/>
<path d="M1608 458 c-12 -29 -34 -77 -49 -105 l-26 -53 30 0 c22 0 27 3 19 13
-6 7 -6 21 -1 35 6 17 16 22 43 22 29 0 37 -4 42 -24 3 -14 3 -30 -1 -35 -4
-7 9 -11 35 -11 l41 0 -18 23 c-10 13 -31 60 -48 105 -16 45 -33 82 -37 82 -4
0 -18 -24 -30 -52z m36 -55 c6 -20 4 -23 -18 -23 -29 0 -31 7 -14 45 12 27 19
23 32 -22z"/>
<path d="M1830 500 c-31 -3 -40 -7 -27 -12 14 -6 17 -21 17 -86 0 -47 -5 -83
-12 -90 -9 -9 -2 -12 32 -12 38 0 42 2 26 13 -20 15 -19 68 1 74 6 3 24 -14
38 -36 23 -35 65 -61 98 -61 5 0 -9 18 -32 40 -43 42 -51 69 -26 90 32 27 6
73 -45 81 -14 2 -45 2 -70 -1z m80 -29 c5 -11 10 -24 10 -30 0 -16 -30 -41
-51 -41 -15 0 -19 7 -19 38 0 21 3 42 7 45 13 14 43 7 53 -12z"/>
<path d="M1222 489 c15 -8 17 -20 11 -87 -3 -42 -10 -83 -16 -89 -7 -10 -2
-13 23 -13 27 0 30 2 21 14 -7 9 -11 39 -9 78 l3 63 39 -80 38 -80 44 85 43
85 0 -71 c1 -42 -4 -75 -11 -82 -9 -9 -2 -12 32 -12 41 0 42 1 27 18 -25 27
-24 157 1 171 14 9 11 10 -18 10 -32 0 -37 -4 -57 -47 -44 -94 -45 -94 -87
-19 -34 61 -41 67 -69 67 -27 -1 -29 -2 -15 -11z"/>
<path d="M2304 484 c12 -11 16 -35 16 -84 0 -49 -4 -73 -16 -84 -14 -15 -11
-16 33 -16 37 1 44 3 31 11 -15 8 -18 24 -18 89 0 65 3 81 18 89 13 8 6 10
-31 11 -44 0 -47 -1 -33 -16z"/>
<path d="M2453 489 c24 -14 25 -150 1 -173 -14 -15 -11 -16 28 -16 34 1 39 3
26 11 -14 8 -18 23 -18 72 l0 62 75 -76 c41 -42 77 -74 80 -71 3 3 5 43 5 88
0 62 4 87 16 98 14 15 12 16 -22 16 -30 0 -34 -2 -25 -14 7 -8 11 -37 9 -66
l-3 -51 -68 65 c-50 49 -74 66 -95 66 -23 -1 -24 -2 -9 -11z"/>
<path d="M2743 489 c14 -8 17 -24 17 -87 0 -47 -5 -83 -12 -90 -9 -9 6 -12 70
-12 45 0 82 4 82 9 0 5 3 18 7 28 6 17 5 17 -13 2 -49 -42 -94 -34 -94 17 0
31 3 34 28 34 15 0 33 -5 40 -12 9 -9 12 -4 12 22 0 26 -3 31 -12 22 -7 -7
-25 -12 -40 -12 -26 0 -28 3 -28 40 0 38 2 40 29 40 20 0 35 -8 45 -22 l16
-22 0 27 0 27 -82 0 c-61 -1 -78 -3 -65 -11z"/>
</g>
</svg>
