<?xml version="1.0" standalone="no"?>
<!DOCTYPE svg PUBLIC "-//W3C//DTD SVG 20010904//EN"
 "http://www.w3.org/TR/2001/REC-SVG-20010904/DTD/svg10.dtd">
<svg version="1.0" xmlns="http://www.w3.org/2000/svg"
 width="518.000000pt" height="481.000000pt" viewBox="0 0 518.000000 481.000000"
 preserveAspectRatio="xMidYMid meet">

<g transform="translate(0.000000,481.000000) scale(0.100000,-0.100000)"
fill="#000000" stroke="none">
<path d="M2000 4403 c-14 -3 -33 -12 -42 -20 -9 -8 -22 -12 -27 -8 -6 3 -16
-5 -22 -19 -10 -20 -17 -24 -39 -19 -22 4 -31 0 -40 -16 -7 -14 -19 -21 -33
-19 -14 2 -25 -4 -31 -17 -5 -12 -19 -26 -32 -32 -19 -9 -24 -7 -33 13 -6 13
-19 24 -30 24 -10 0 -21 7 -25 15 -7 20 -52 19 -60 0 -5 -13 -10 -14 -27 -5
-32 18 -49 5 -49 -35 0 -34 -1 -35 -22 -21 -13 8 -42 14 -65 14 -39 1 -43 -2
-43 -24 0 -19 -5 -24 -26 -24 -25 0 -26 -2 -21 -39 l5 -39 -31 9 c-39 11 -47
5 -47 -35 0 -17 -5 -37 -11 -43 -8 -8 -6 -19 5 -41 22 -44 20 -52 -14 -52 -38
0 -38 -12 5 -80 19 -30 39 -65 44 -77 15 -33 67 -56 110 -49 20 4 47 6 61 6
14 -1 63 -2 110 -3 84 -2 84 -2 107 -36 42 -63 37 -69 -111 -140 -164 -77
-273 -147 -348 -222 l-57 -57 -5 32 c-3 17 -8 51 -12 76 -3 25 -10 178 -14
340 l-7 295 1 -407 c0 -225 2 -408 4 -408 2 0 34 30 70 66 37 36 85 78 107 93
69 48 205 116 338 171 70 29 144 63 163 76 20 14 32 20 29 14 -4 -7 3 -9 22
-4 49 12 22 -3 -86 -46 -136 -55 -340 -159 -416 -213 -115 -81 -135 -99 -182
-171 -44 -66 -48 -76 -48 -133 0 -71 3 -69 -107 -79 l-68 -7 0 233 c0 128 -2
231 -5 229 -2 -3 -5 -70 -5 -149 -1 -162 -10 -323 -18 -315 -3 2 -4 78 -4 167
0 111 -2 150 -8 123 -4 -22 -7 -60 -6 -85 3 -52 -14 -213 -22 -206 -3 3 -5 86
-5 183 0 153 -1 165 -7 88 -4 -49 -9 -135 -10 -190 -1 -65 -4 -93 -10 -80 -4
11 -7 223 -5 470 2 393 1 422 -6 230 -5 -121 -11 -245 -13 -275 -3 -30 -5
-144 -5 -252 -1 -195 -1 -197 -23 -204 -13 -4 -70 -30 -128 -58 l-105 -51
-175 3 c-198 3 -259 -6 -290 -45 -11 -14 -20 -29 -20 -34 0 -4 16 -24 35 -45
l35 -37 123 6 c93 4 130 2 156 -9 18 -8 48 -14 66 -14 18 0 52 -7 76 -15 24
-9 63 -15 86 -13 28 1 49 -4 61 -15 10 -9 24 -17 30 -17 7 0 12 -4 12 -9 0 -5
10 -11 22 -13 20 -3 24 -11 29 -63 4 -33 8 -114 9 -180 1 -66 5 -158 9 -205
l8 -85 3 130 c2 102 4 120 11 85 4 -25 8 -92 9 -150 1 -58 5 -130 9 -160 5
-33 7 14 5 120 -3 175 -3 175 9 83 15 -113 26 -129 19 -30 -3 48 -1 77 7 81 6
4 8 24 4 53 -4 31 -3 44 4 40 11 -7 23 23 23 61 0 26 12 28 31 6 10 -12 10
-22 1 -48 -14 -37 -15 -59 -4 -52 15 9 39 -20 46 -56 5 -27 18 -47 46 -69 50
-40 58 -62 66 -192 3 -59 9 -106 12 -103 7 7 4 163 -4 198 -3 16 -1 28 4 28 8
0 13 -48 32 -360 l8 -125 -1 175 c0 96 2 193 3 215 6 85 18 -67 19 -237 l1
-167 -26 -20 c-14 -11 -34 -31 -45 -45 -35 -44 2 -31 79 30 40 30 72 52 72 48
0 -5 19 10 43 33 23 22 67 58 97 78 50 35 48 31 -33 -45 -48 -45 -92 -92 -99
-104 -8 -16 -4 -15 22 9 26 24 32 26 26 10 -5 -14 1 -11 21 11 43 48 111 98
180 133 34 17 65 31 68 31 4 0 -10 -15 -29 -34 -52 -49 -44 -53 17 -8 71 52
86 60 59 30 -12 -13 -20 -27 -17 -30 3 -3 -16 -23 -42 -44 -111 -90 -263 -259
-263 -293 0 -9 8 -1 18 17 28 53 148 178 235 246 99 77 178 117 311 161 143
46 153 48 231 46 74 -2 83 1 210 75 l50 29 280 7 c179 4 311 12 365 22 87 16
348 88 453 125 60 21 324 154 502 254 417 232 398 226 575 212 78 -7 93 -5
179 24 51 17 113 31 137 31 74 0 152 37 211 98 29 30 53 61 53 68 0 8 -19 19
-44 25 l-44 11 18 30 c25 42 16 58 -33 58 l-40 0 21 22 c45 49 53 128 12 128
-11 0 -35 -8 -55 -17 -19 -9 -38 -14 -41 -10 -9 8 -8 51 1 106 l8 44 -34 -6
c-19 -3 -43 -9 -53 -13 -16 -6 -18 -4 -11 12 4 10 10 32 13 48 4 28 3 28 -31
24 -32 -3 -36 -1 -41 24 -11 58 -88 18 -151 -79 -23 -35 -50 -64 -63 -67 -12
-4 -39 -21 -60 -39 -38 -33 -112 -73 -112 -59 1 20 104 113 158 142 76 40 98
63 113 121 15 54 8 79 -22 79 -18 0 -20 4 -15 26 14 55 -11 79 -64 64 -28 -8
-31 -7 -24 8 19 46 17 71 -9 83 -18 8 -30 8 -46 -1 -17 -9 -26 -9 -37 1 -11 9
-21 9 -39 1 -22 -10 -24 -9 -27 16 -2 23 -7 27 -30 25 -23 -1 -28 2 -28 20 0
30 -15 50 -31 45 -8 -3 -19 2 -25 11 -10 13 -15 13 -39 -3 -25 -16 -27 -17
-39 -1 -15 22 -42 10 -79 -34 l-25 -30 -5 36 c-7 38 -32 73 -53 73 -7 0 -22
-14 -35 -31 l-21 -30 -12 22 c-6 12 -19 27 -29 33 -15 9 -22 7 -36 -10 -17
-21 -18 -21 -29 -3 -20 31 -42 22 -63 -27 -20 -45 -21 -45 -35 -25 -21 29 -39
26 -54 -9 -12 -28 -14 -29 -30 -15 -23 21 -51 19 -57 -5 -6 -23 -14 -25 -30
-9 -20 20 -42 2 -45 -38 -3 -34 -6 -37 -33 -38 -25 0 -31 -5 -40 -37 l-10 -38
-30 20 c-17 11 -43 20 -59 20 -28 0 -28 0 -21 -46 l6 -45 -31 16 c-17 9 -41
15 -53 13 -19 -3 -22 -9 -20 -45 1 -23 9 -55 17 -72 10 -18 12 -32 6 -36 -5
-3 -16 10 -24 28 -8 19 -19 37 -24 41 -6 3 -18 30 -26 59 -9 30 -25 62 -36 72
-20 18 -21 18 -44 -4 l-23 -22 -17 40 c-16 42 -46 55 -63 29 -4 -7 -19 -13
-33 -13 -15 0 -28 -8 -35 -21 -9 -17 -14 -19 -33 -11 -33 15 -54 -10 -60 -72
-2 -28 -6 -51 -7 -51 -2 0 -16 7 -31 15 -27 14 -30 14 -46 -6 -10 -12 -18 -30
-18 -40 0 -24 -10 -24 -50 -1 -30 16 -31 16 -41 -1 -10 -18 -13 -17 -43 12
-60 58 -142 75 -242 50 -49 -13 -104 -65 -104 -100 0 -12 -8 -23 -20 -26 -11
-3 -20 -9 -20 -14 0 -4 9 -13 20 -19 16 -9 20 -21 20 -68 0 -46 -7 -69 -33
-116 -41 -73 -53 -81 -103 -71 -36 7 -37 8 -14 15 29 9 20 12 -33 12 -42 0
-41 10 3 28 16 7 30 16 30 21 0 13 -61 -11 -107 -43 -41 -28 -42 -28 -117 -17
-55 8 -84 8 -107 0 -45 -15 -44 -16 -58 29 -9 29 -23 48 -52 67 -88 58 -195
60 -311 5 -50 -23 -170 -62 -194 -62 -2 0 -4 21 -4 46 0 61 50 144 130 216 57
52 258 168 323 186 47 14 357 141 424 174 12 6 50 30 85 54 105 72 166 99 223
96 58 -3 129 14 146 34 6 8 19 14 29 14 31 0 115 40 128 61 14 22 8 39 -14 39
-12 0 -12 4 -4 21 9 15 8 24 -2 36 -7 9 -13 21 -14 27 0 6 -2 17 -2 24 -1 6
-8 12 -15 12 -8 0 -19 12 -26 26 -9 21 -17 25 -44 23 -49 -3 -77 10 -77 36 0
12 -7 29 -16 36 -14 11 -21 11 -45 -3 -28 -17 -29 -16 -29 5 0 50 -11 69 -36
63 -20 -5 -24 -3 -24 18 0 33 -16 41 -45 22 -32 -21 -33 -21 -37 12 -2 21 -8
27 -27 27 -16 0 -27 8 -32 23 -7 20 -12 21 -30 12 -17 -10 -23 -8 -36 9 -16
23 -49 28 -56 9 -4 -10 -7 -10 -18 0 -7 6 -15 11 -18 11 -4 -1 -17 -4 -31 -6z
m108 -37 c5 -24 -7 -86 -16 -86 -4 0 -13 14 -21 31 -10 24 -11 36 -2 56 12 27
34 26 39 -1z m-125 -8 l-5 -23 16 23 c39 51 63 4 30 -59 -12 -25 -18 -28 -30
-18 -8 6 -14 21 -15 33 -1 19 -2 18 -9 -4 -7 -23 -8 -22 -9 11 -1 19 4 40 11
47 16 16 17 15 11 -10z m197 -17 c0 -10 -6 -33 -13 -50 -11 -27 -16 -30 -25
-18 -14 16 -5 78 12 89 14 9 26 0 26 -21z m-236 3 c10 -27 7 -71 -7 -82 -9 -8
-15 -3 -23 22 -15 50 12 106 30 60z m286 -54 c0 -46 -3 -47 -29 -21 -17 17
-18 21 -5 40 23 32 34 25 34 -19z m-340 -10 c0 -24 -8 -25 -31 -4 -10 9 -15
22 -12 30 7 20 43 -1 43 -26z m-252 -24 c3 -35 2 -36 -17 -24 -30 18 -27 75 3
65 6 -2 12 -20 14 -41z m429 -75 c-4 -73 -3 -89 2 -51 5 30 16 73 25 95 16 38
18 39 32 21 20 -27 18 -85 -5 -129 -10 -20 -15 -37 -10 -37 16 0 38 45 52 105
14 63 31 80 41 43 11 -43 6 -81 -16 -116 -12 -20 -23 -43 -23 -51 -5 -52 -19
-92 -41 -116 -21 -23 -25 -35 -20 -63 10 -62 23 -62 77 -4 27 29 49 49 49 43
0 -12 -55 -78 -87 -104 -33 -27 -28 -40 12 -35 19 2 35 3 35 2 0 -6 -74 -47
-126 -70 l-59 -25 38 31 c57 48 69 86 50 154 l-16 55 32 36 c19 22 31 46 31
65 0 45 -15 43 -28 -4 -6 -24 -18 -46 -27 -50 -14 -5 -14 -2 0 25 18 34 12 71
-11 62 -7 -3 -14 -9 -14 -15 0 -5 5 -6 11 -3 5 4 3 -10 -6 -31 -16 -39 -34
-64 -20 -29 16 43 18 58 7 51 -7 -4 -12 -11 -12 -16 0 -5 -11 -26 -25 -46 -33
-48 -32 -38 5 39 36 77 39 101 4 35 -13 -27 -26 -48 -28 -48 -7 0 7 45 22 67
26 41 33 97 18 146 -12 39 -12 49 1 67 27 38 35 12 30 -99z m-494 88 c13 -18
13 -24 -1 -51 l-15 -31 -19 22 c-19 24 -22 39 -12 65 8 22 30 20 47 -5z m238
-49 c4 -36 10 -83 14 -106 7 -37 4 -44 -34 -88 -23 -26 -41 -52 -41 -57 0 -6
13 -24 29 -40 33 -33 32 -37 -4 -13 -14 9 -32 14 -40 10 -11 -4 -15 2 -15 28
0 24 6 36 24 45 13 8 32 31 41 52 18 39 16 73 -11 207 -6 30 -4 33 12 30 15
-3 20 -15 25 -68z m499 53 c0 -25 -10 -36 -42 -50 -16 -7 -28 -17 -28 -23 0
-5 -5 -10 -10 -10 -12 0 14 55 38 83 8 9 21 17 29 17 7 0 13 -8 13 -17z m-612
-35 c12 -45 5 -61 -19 -47 -27 14 -25 79 2 79 5 0 12 -15 17 -32z m160 10 c10
-21 22 -107 23 -168 0 -14 3 -20 5 -13 7 17 44 -22 54 -58 11 -37 -5 -38 -24
-1 -18 32 -21 24 -5 -12 7 -14 25 -29 40 -35 30 -10 40 -31 16 -31 -25 0 -57
46 -93 131 -54 128 -57 137 -50 174 8 41 18 44 34 13z m147 -18 c20 -40 19
-95 -5 -160 -10 -30 -19 -47 -20 -37 0 10 -7 29 -16 43 -13 19 -16 40 -12 93
7 97 24 117 53 61z m-587 8 c7 -7 12 -22 12 -35 0 -21 -2 -22 -20 -11 -11 7
-20 23 -20 35 0 25 10 29 28 11z m66 -51 c-4 -23 -10 -46 -14 -50 -9 -10 -30
46 -30 78 0 29 9 36 31 24 16 -8 18 -17 13 -52z m296 2 c0 -10 -5 -21 -11 -25
-6 -3 -19 -19 -29 -36 l-18 -29 -6 33 c-6 31 4 83 20 109 9 16 44 -25 44 -52z
m588 37 c4 -17 -33 -66 -50 -66 -15 0 -8 53 9 72 19 21 37 19 41 -6z m-444 -8
c13 -62 17 -160 7 -154 -32 20 -57 110 -42 149 13 33 29 35 35 5z m-299 -21
c3 -12 5 -58 3 -102 l-3 -80 -19 29 c-20 29 -34 131 -22 161 8 23 35 18 41 -8z
m665 -16 c0 -32 -32 -111 -45 -111 -7 0 -15 -17 -19 -38 -5 -37 -36 -78 -49
-66 -3 3 -10 -4 -17 -15 -6 -12 -17 -21 -25 -21 -10 0 -7 8 9 23 22 22 45 102
32 114 -3 3 6 14 19 25 13 10 27 29 31 41 10 33 44 78 55 72 5 -4 9 -14 9 -24z
m-902 8 c17 -6 38 -21 46 -34 21 -31 20 -39 -1 -30 -10 4 -34 11 -53 14 -29 5
-36 11 -38 34 -4 30 1 32 46 16z m153 -5 c7 -9 16 -40 19 -69 l6 -54 -33 37
c-22 25 -32 47 -33 70 0 35 18 43 41 16z m915 -50 c-5 -19 -10 -23 -24 -16 -9
5 -23 7 -29 5 -24 -8 -13 25 14 47 24 19 28 19 36 5 5 -9 6 -27 3 -41z m-759
9 c13 -32 14 -57 7 -148 l-9 -110 -19 70 c-26 100 -35 155 -29 193 7 43 30 41
50 -5z m673 7 c0 -36 -105 -170 -133 -170 -21 0 30 95 82 153 25 27 51 36 51
17z m-580 -33 c0 -26 -32 -89 -48 -95 -8 -2 -10 7 -5 30 13 68 53 118 53 65z
m-458 1 c9 -7 19 -23 23 -36 6 -22 4 -23 -32 -20 -35 3 -38 6 -41 36 -3 26 0
32 15 32 11 0 26 -6 35 -12z m105 -26 c30 -35 30 -56 1 -48 -13 3 -30 6 -40 6
-17 0 -42 55 -32 72 9 14 47 -1 71 -30z m1059 -18 c-7 -18 -46 -18 -46 0 0 8
10 22 23 31 20 14 22 14 25 0 2 -9 1 -23 -2 -31z m78 31 c3 -9 -7 -28 -25 -48
l-30 -32 6 40 c9 50 36 73 49 40z m-1041 -45 c33 -37 46 -61 51 -94 4 -25 17
-57 29 -72 23 -30 8 -25 -32 10 -20 18 -23 18 -18 4 12 -33 -2 -18 -23 25 -11
23 -31 60 -45 82 -24 39 -34 95 -16 95 5 0 29 -22 54 -50z m887 20 c0 -18 -13
-47 -32 -74 -18 -24 -46 -66 -61 -91 -15 -26 -30 -46 -32 -43 -3 2 2 38 11 79
13 63 21 80 57 117 22 23 45 42 49 42 4 0 8 -13 8 -30z m-504 -132 c9 -9 14
-22 12 -28 -2 -7 -17 10 -34 37 -46 71 -56 92 -48 105 4 7 17 -11 31 -42 13
-30 31 -62 39 -72z m706 97 c2 -14 -133 -124 -152 -125 -26 0 -140 -59 -140
-71 0 -7 8 -5 23 5 55 41 162 67 169 41 5 -21 -85 -60 -142 -61 -30 -1 -72 -9
-94 -18 -21 -10 -40 -15 -43 -12 -2 2 5 7 17 11 11 4 50 50 85 104 61 91 93
121 130 121 38 0 -2 -62 -63 -97 -25 -15 -40 -29 -34 -31 16 -5 71 30 135 85
67 58 107 75 109 48z m-1321 -5 c26 -14 25 -50 -1 -50 -10 0 -24 9 -30 19 -20
39 -8 51 31 31z m80 -32 c7 -47 -13 -52 -36 -8 -21 40 -19 52 7 48 18 -2 24
-12 29 -40z m90 -15 c23 -21 48 -51 56 -68 7 -16 21 -41 31 -55 l17 -25 -30
19 c-16 10 -42 30 -56 45 -14 14 -40 38 -57 53 -33 27 -43 68 -17 68 8 0 34
-17 56 -37z m380 -15 l21 -43 -26 30 c-14 17 -25 36 -26 43 0 22 9 13 31 -30z
m-192 -60 l0 -23 -11 23 c-6 12 -15 22 -20 22 -5 0 -1 -14 8 -31 8 -17 11 -29
6 -25 -13 8 -39 64 -47 101 l-7 30 36 -37 c21 -22 36 -47 35 -60z m170 47 l20
-35 -29 22 c-31 22 -35 30 -23 41 9 10 9 10 32 -28z m456 25 c-3 -5 -16 -15
-28 -21 -21 -10 -21 -9 2 10 25 23 36 27 26 11z m355 -5 c0 -11 -85 -65 -102
-65 -27 0 -18 21 22 48 29 19 80 31 80 17z m-1284 -42 c1 -27 -3 -28 -28 -6
-24 22 -23 35 5 31 15 -2 22 -10 23 -25z m465 -8 c22 -19 46 -35 54 -35 8 0
15 -3 15 -7 0 -15 -26 -83 -35 -90 -4 -5 -5 0 -2 10 9 25 -2 21 -13 -5 -8 -22
-9 -22 -9 -2 -1 11 -4 24 -8 28 -5 4 -8 12 -8 16 0 5 -9 16 -20 25 -19 15 -19
15 5 7 14 -5 33 -7 43 -4 19 4 24 22 5 22 -15 0 -78 49 -78 61 0 16 11 10 51
-26z m457 -15 c-15 -64 -20 -72 -64 -97 -54 -31 -61 -29 -27 10 16 18 44 57
63 85 18 29 35 51 36 49 1 -1 -2 -22 -8 -47z m-983 18 c10 -15 12 -24 4 -27
-6 -2 0 -8 13 -15 28 -14 36 -44 13 -52 -10 -4 -26 3 -41 16 -26 25 -32 49
-11 51 6 1 1 4 -13 8 -14 4 -26 15 -28 24 -5 26 43 22 63 -5z m1365 -2 c0 -16
-37 -42 -74 -52 -43 -10 -32 19 17 43 51 26 57 27 57 9z m-1186 -30 c22 -21
34 -39 31 -49 -4 -9 4 -23 21 -36 26 -20 26 -21 5 -21 -12 0 -32 5 -43 11 -15
8 -19 8 -13 -1 4 -6 17 -15 29 -20 20 -8 20 -9 1 -9 -23 0 -49 17 -57 40 -4 9
-19 19 -35 22 -15 4 -35 11 -43 16 -24 16 -2 26 31 14 l29 -11 -30 28 c-39 36
-38 50 4 50 26 0 44 -9 70 -34z m705 12 c-28 -56 -59 -70 -59 -27 0 15 31 38
68 48 1 1 -3 -9 -9 -21z m-154 3 c-16 -15 -107 -52 -99 -40 3 6 25 19 48 29
47 21 65 25 51 11z m-260 -31 c-3 -5 5 -16 17 -24 12 -9 17 -16 10 -16 -19 0
-64 48 -57 61 5 7 11 6 21 -2 7 -6 12 -15 9 -19z m305 -31 c0 -55 -3 -63 -32
-90 -27 -25 -129 -89 -141 -89 -2 0 0 24 5 53 21 123 19 118 73 139 28 11 57
26 65 34 25 24 30 16 30 -47z m-306 -10 c43 -28 46 -34 46 -73 0 -30 -6 -48
-20 -61 -20 -18 -21 -18 -35 1 -32 40 -50 90 -47 127 2 20 5 37 7 37 2 0 24
-14 49 -31z m-161 -19 c24 0 47 3 51 7 15 15 31 9 32 -11 0 -11 4 -30 9 -41 6
-17 5 -17 -9 3 -15 19 -54 33 -43 15 3 -5 -9 -9 -26 -10 -28 -1 -29 -1 -9 7
30 13 28 16 -12 16 -37 0 -86 21 -86 37 0 5 11 2 25 -7 13 -9 44 -16 68 -16z
m-200 -14 l39 -13 -37 -6 c-40 -7 -90 7 -80 23 8 13 32 12 78 -4z m2635 -188
c-3 -46 -1 -74 3 -63 4 11 8 49 8 85 1 51 4 62 14 52 16 -17 15 -134 -3 -199
-11 -40 -19 -52 -37 -56 -20 -4 -25 2 -39 48 -15 48 -15 55 0 109 25 85 34
106 47 106 8 0 10 -24 7 -82z m-203 -25 c-1 -54 -1 -73 1 -43 2 30 6 75 10 99
5 37 8 42 20 30 11 -12 11 -22 3 -54 -6 -22 -9 -81 -7 -132 4 -103 -5 -109
-36 -23 -15 40 -17 69 -13 126 5 64 11 94 21 94 2 0 2 -44 1 -97z m92 45 c-4
-36 -3 -48 3 -38 5 8 10 33 10 55 l1 40 15 -28 c21 -40 1 -131 -38 -170 -15
-16 -29 -34 -29 -40 -1 -7 -5 8 -9 33 -12 71 15 200 41 200 8 0 10 -16 6 -52z
m241 -34 c-5 -31 -13 -65 -19 -76 -6 -11 -8 -22 -5 -25 7 -7 23 34 32 83 11
62 26 77 18 19 -3 -27 -8 -77 -10 -109 -4 -65 -10 -78 -24 -56 -7 10 -10 11
-10 3 0 -7 -11 -25 -25 -40 -14 -16 -32 -37 -40 -48 -13 -19 -14 -17 -16 25
-2 69 1 90 23 155 21 66 64 139 77 131 4 -3 4 -31 -1 -62z m92 63 c0 -2 -13
-28 -30 -58 -28 -50 -29 -51 -23 -19 7 38 30 80 44 80 5 0 9 -2 9 -3z m-2450
-12 c0 -4 -169 -85 -179 -85 -15 0 50 37 108 61 77 32 71 30 71 24z m198 0
c-2 -3 -38 -16 -78 -30 -40 -14 -70 -22 -66 -17 4 4 35 17 69 29 63 22 84 27
75 18z m2259 -47 c-36 -63 -52 -117 -38 -131 8 -8 11 -3 11 19 0 36 58 157 71
148 16 -10 10 -61 -11 -87 -34 -43 -61 -114 -62 -164 0 -32 -7 -56 -20 -73
l-20 -25 5 110 c5 111 25 182 65 228 25 28 24 20 -1 -25z m-512 2 c13 0 35
-57 35 -92 0 -9 9 -38 20 -64 20 -45 20 -48 3 -66 -17 -19 -18 -19 -40 6 -31
36 -43 88 -42 176 1 41 3 67 6 58 2 -10 11 -18 18 -18z m-64 -17 c6 -16 13
-46 15 -68 2 -22 10 -62 18 -90 9 -27 16 -62 16 -77 0 -15 4 -30 10 -33 6 -4
7 6 3 27 -6 33 -6 33 14 15 20 -18 21 -57 2 -57 -5 0 -9 -10 -9 -22 0 -28
-105 194 -113 238 -3 17 -2 44 2 60 7 27 8 25 14 -22 4 -28 14 -59 22 -70 12
-16 12 -12 0 30 -23 77 -18 130 6 69z m-1886 -18 c-27 -13 -55 -24 -61 -25 -6
0 -50 -18 -96 -39 -111 -52 -158 -71 -158 -66 0 14 317 153 350 153 8 1 -7
-10 -35 -23z m1819 -2 c10 -25 -4 -30 -20 -9 -23 32 -16 -3 9 -43 12 -20 39
-72 59 -116 l36 -80 -21 -17 c-12 -9 -23 -15 -25 -13 -2 2 -7 33 -12 69 -7 59
-24 105 -61 164 -15 25 -4 73 15 66 8 -3 17 -13 20 -21z m756 -8 c0 -21 -85
-150 -115 -175 -13 -11 -15 -9 -15 12 0 25 34 96 73 155 24 36 57 40 57 8z
m110 -64 c-16 -29 -30 -59 -30 -69 0 -9 17 12 38 47 29 50 38 59 40 42 4 -23
-23 -72 -63 -115 -14 -15 -36 -49 -49 -74 -33 -64 -46 -79 -79 -86 -27 -6 -27
-5 -16 16 7 13 25 38 42 57 33 38 97 166 97 193 0 15 39 52 47 44 2 -2 -10
-27 -27 -55z m-91 -1 c-32 -57 -17 -60 17 -3 20 34 29 43 32 30 5 -23 -15 -82
-45 -134 -33 -58 -39 -59 -35 -8 3 36 0 45 -18 55 -22 12 -22 12 21 56 24 24
45 44 47 44 2 0 -7 -18 -19 -40z m-791 -48 c13 -23 28 -72 34 -109 9 -59 8
-72 -8 -101 l-18 -33 -23 28 c-56 67 -101 197 -86 252 12 45 33 21 66 -77 13
-40 27 -76 31 -79 15 -15 3 28 -28 105 -31 76 -32 82 -12 69 11 -8 31 -33 44
-55z m-2138 53 c0 -2 -13 -11 -30 -20 -38 -19 -40 -11 -2 9 31 17 32 18 32 11z
m1550 -22 c0 -10 -4 -24 -9 -31 -7 -11 -10 -10 -15 3 -10 28 -7 45 9 45 8 0
15 -8 15 -17z m40 -196 c-19 -20 -31 146 -15 193 7 19 11 0 17 -80 4 -58 3
-109 -2 -113z m50 127 c0 -12 -6 -27 -14 -33 -11 -9 -15 -4 -20 32 -4 24 -3
52 1 62 6 17 8 16 19 -10 7 -17 13 -40 14 -51z m825 2 c-4 -37 -3 -47 4 -36 6
8 11 34 11 58 0 50 15 48 29 -3 7 -27 6 -43 -6 -67 -9 -17 -18 -54 -21 -80 -6
-62 -22 -57 -40 13 -23 94 -24 105 -8 143 22 53 39 37 31 -28z m-739 10 c3
-19 3 -45 -2 -58 -7 -22 -7 -22 -15 -3 -11 29 -11 107 1 100 5 -3 12 -21 16
-39z m260 11 c16 -18 40 -64 54 -101 16 -44 39 -84 63 -109 l38 -40 -35 -12
c-20 -7 -43 -18 -51 -25 -17 -14 -18 -8 -9 39 5 22 11 30 20 27 27 -10 14 9
-22 34 -46 31 -85 88 -89 132 -1 18 -8 45 -14 61 -15 39 9 36 45 -6z m-304
-17 c3 -34 2 -38 -11 -26 -8 9 -11 24 -7 40 9 36 13 33 18 -14z m-230 -32 c5
-77 1 -93 -18 -77 -21 18 -16 139 6 139 5 0 10 -28 12 -62z m64 -45 c6 -22 4
-24 -17 -21 -22 3 -24 8 -26 68 l-2 65 20 -44 c10 -24 22 -55 25 -68z m1563
65 c-57 -53 -102 -113 -97 -129 2 -7 18 10 36 38 45 70 132 138 132 103 0 -39
-78 -134 -149 -183 -24 -17 -58 -46 -74 -64 -43 -49 -45 -33 -3 22 20 25 36
52 36 58 0 59 54 141 115 179 50 30 52 20 4 -24z m-1555 6 c3 -8 2 -12 -4 -9
-6 3 -10 10 -10 16 0 14 7 11 14 -7z m1066 -80 c0 -68 -19 -152 -42 -186 -10
-14 -18 -30 -18 -34 0 -5 7 2 16 14 8 12 19 22 25 22 17 0 9 -78 -13 -137
l-23 -58 -6 75 -5 75 -2 -75 c-2 -79 5 -120 19 -120 4 0 20 37 34 83 22 68 26
93 20 148 -5 56 -2 76 21 140 42 116 88 169 80 92 -2 -21 -1 -29 1 -18 8 35
23 41 23 10 0 -56 -27 -144 -58 -192 -24 -37 -102 -244 -102 -270 0 -16 97 70
122 109 17 26 33 46 36 44 5 -5 -31 -59 -61 -93 -38 -42 2 -23 47 22 34 33 50
60 62 102 11 38 28 71 52 95 20 21 37 36 40 34 2 -2 -12 -26 -31 -53 -19 -26
-38 -59 -41 -73 -4 -16 1 -11 16 15 33 58 82 124 91 125 13 0 -3 -59 -30 -115
l-24 -50 71 73 c39 39 72 72 74 72 2 0 2 -10 -2 -22 -12 -47 -114 -134 -144
-123 -8 3 -25 -6 -38 -20 -13 -14 -29 -25 -36 -25 -7 0 -30 -20 -51 -43 -21
-24 -66 -63 -100 -87 -46 -31 -65 -52 -74 -78 -16 -49 -5 -181 21 -239 l20
-46 -22 -25 c-13 -13 -32 -28 -43 -34 -17 -8 -16 -6 2 9 29 23 30 49 8 147
-14 62 -17 105 -12 196 3 72 1 123 -5 135 -6 10 -10 46 -9 79 1 34 3 111 4
171 2 80 7 121 21 152 10 24 22 40 27 37 5 -3 9 3 9 13 1 17 2 17 15 -1 9 -12
15 -42 15 -72z m-674 34 c11 -12 30 -39 41 -60 l21 -36 -28 -27 -28 -27 -25
34 c-38 50 -69 115 -65 135 3 13 14 2 41 -39 20 -32 42 -58 48 -58 5 0 2 12
-9 28 -10 15 -26 42 -35 59 -14 30 -14 32 1 24 9 -5 26 -20 38 -33z m940 6
c-4 -14 -28 -62 -53 -105 -25 -44 -44 -82 -41 -84 9 -9 87 118 105 171 11 30
19 42 21 31 2 -10 -1 -32 -7 -49 -17 -47 -155 -248 -164 -239 -12 12 8 132 30
178 15 33 96 123 110 123 3 0 2 -12 -1 -26z m-1759 -31 c41 -40 73 -84 73
-100 0 -3 -6 -1 -12 5 -7 5 -37 20 -66 32 l-52 23 -39 -27 c-40 -28 -43 -28
-135 -11 -32 6 -36 10 -24 19 8 6 19 25 25 41 5 17 14 30 19 31 5 0 25 8 44
17 19 9 54 16 77 17 38 0 49 -6 90 -47z m468 -46 c9 -32 14 -61 11 -64 -9 -9
-33 60 -38 112 -6 54 0 43 27 -48z m76 -13 c-3 -88 5 -174 17 -174 4 0 5 54 4
121 -3 98 -1 120 10 117 13 -5 20 -84 32 -358 l5 -115 -18 50 c-11 28 -20 60
-20 72 -1 11 -12 43 -26 70 -31 59 -48 145 -39 197 6 35 30 106 37 106 1 0 0
-39 -2 -86z m735 50 c4 -20 4 -73 1 -118 l-5 -81 14 60 c9 36 12 83 9 118 -3
31 -4 57 -1 57 3 0 12 -13 21 -30 23 -44 18 -104 -15 -187 -16 -41 -30 -89
-30 -108 0 -18 -3 -48 -7 -66 -7 -33 -7 -33 -14 -9 -4 14 -7 49 -8 78 -1 29
-8 67 -17 84 -20 38 -15 145 9 201 20 47 34 47 43 1z m788 -6 c-10 -13 -32
-39 -49 -58 -18 -21 -9 -15 23 15 28 27 52 44 52 37 0 -25 -29 -69 -62 -93
-29 -22 -126 -79 -133 -79 -13 0 34 83 54 97 14 9 47 39 73 67 46 48 81 60 42
14z m-1812 -10 c24 -27 37 -58 48 -113 l8 -40 0 40 c1 22 -5 58 -13 80 -8 21
-12 41 -10 43 8 8 65 -83 65 -104 0 -13 -8 -37 -18 -53 l-18 -30 -35 37 c-44
47 -71 106 -63 137 8 31 11 31 36 3z m439 -145 c-1 -67 -7 -126 -16 -145 -7
-18 -16 -58 -20 -89 -16 -127 21 -155 94 -71 22 26 54 61 70 77 16 17 45 55
64 85 53 82 78 108 120 125 55 23 48 -6 -24 -101 -22 -28 -39 -55 -39 -60 0
-12 43 40 81 95 32 50 38 37 10 -24 -28 -62 -68 -103 -110 -115 -41 -11 -200
-144 -212 -178 -18 -48 -29 -203 -19 -269 5 -37 10 -77 10 -88 0 -18 -1 -18
-15 2 -9 12 -21 62 -27 110 -11 75 -13 83 -19 53 l-6 -35 -2 43 c0 23 4 42 9
42 6 0 10 20 10 44 0 25 5 57 10 71 8 20 7 26 -2 23 -7 -3 -16 -22 -19 -44 -5
-28 -6 -23 -3 18 2 33 -2 71 -10 90 -10 25 -11 54 -4 123 5 59 5 112 -2 154
-13 73 -4 181 15 208 12 16 14 14 21 -22 5 -22 8 -71 8 -108 0 -51 2 -63 9
-45 9 25 5 151 -7 183 -4 11 1 7 10 -10 14 -24 17 -51 15 -142z m-276 53 c18
-59 19 -76 5 -76 -18 0 -50 82 -49 125 0 38 0 39 15 20 8 -11 21 -42 29 -69z
m-1715 70 c0 -2 -8 -10 -17 -17 -16 -13 -17 -12 -4 4 13 16 21 21 21 13z
m1506 -58 c16 -32 18 -58 4 -58 -5 0 -10 5 -10 11 0 6 -12 34 -26 62 -24 48
-24 50 -4 32 12 -11 28 -32 36 -47z m960 37 c9 -36 -3 -88 -31 -137 -14 -24
-25 -51 -25 -61 0 -10 -5 -15 -11 -12 -6 4 -13 -3 -16 -16 -6 -21 -7 -22 -13
-3 -4 10 -6 51 -4 90 2 62 7 78 35 118 37 52 56 58 65 21z m1008 3 c-4 -7 -16
-23 -26 -34 -11 -12 -32 -52 -47 -90 -30 -74 -51 -93 -51 -47 0 32 35 89 88
146 37 38 48 46 36 25z m-1717 -88 c7 -30 13 -66 13 -79 0 -48 -23 -4 -31 56
-4 32 -10 72 -14 88 -6 27 -5 28 6 10 7 -11 19 -45 26 -75z m1379 41 c-26 -49
-38 -46 -14 4 12 25 24 42 26 36 2 -5 -4 -23 -12 -40z m364 18 c-6 -10 -12
-19 -15 -19 -2 0 -11 -3 -21 -7 -15 -6 -15 -2 5 25 24 34 49 35 31 1z m-2280
11 c0 -5 -5 -10 -11 -10 -5 0 -7 5 -4 10 3 6 8 10 11 10 2 0 4 -4 4 -10z m278
-142 c7 -48 7 -56 -5 -47 -7 6 -13 21 -13 33 0 11 -9 53 -20 91 -11 38 -20 72
-19 75 3 19 50 -106 57 -152z m567 47 l-4 -70 11 58 c8 38 16 57 26 57 10 0
12 -6 7 -22 -20 -67 -25 -100 -25 -175 0 -76 -2 -84 -32 -124 -44 -57 -60 -62
-47 -14 6 20 19 57 30 81 17 41 18 48 4 81 -17 41 -20 168 -5 209 10 26 11 26
25 8 9 -13 12 -40 10 -89z m-972 78 c9 -3 17 -9 17 -13 0 -5 8 -7 18 -5 72 14
90 13 117 -11 28 -24 62 -33 50 -13 -4 6 -1 10 6 8 34 -4 42 0 29 16 -23 27 6
15 34 -14 17 -18 26 -36 23 -45 -4 -11 -1 -16 11 -16 13 0 14 -2 3 -9 -9 -6
-10 -11 -2 -15 6 -4 9 -11 6 -16 -3 -5 3 -13 12 -19 16 -9 16 -10 -5 -11 -21
0 -22 -1 -8 -16 20 -19 20 -25 1 -18 -8 4 -15 1 -15 -5 0 -6 7 -11 15 -11 8 0
12 -6 9 -14 -3 -8 3 -20 13 -27 10 -8 19 -27 20 -44 1 -39 7 -67 16 -82 5 -8
3 -13 -3 -13 -6 0 -8 -4 -5 -10 3 -5 1 -10 -6 -10 -8 0 -8 -4 1 -15 10 -12 10
-15 0 -15 -10 0 -10 -3 -1 -14 9 -11 10 -20 1 -36 -6 -11 -8 -25 -5 -30 3 -6
1 -10 -5 -10 -7 0 -10 -7 -6 -15 3 -8 1 -15 -4 -15 -5 0 -12 -16 -16 -35 -4
-25 -1 -41 13 -62 20 -28 36 -63 29 -63 -4 0 -43 60 -58 90 -5 9 -6 2 -3 -15
3 -16 6 -36 7 -42 1 -7 5 -13 9 -13 5 0 13 -9 19 -21 10 -18 10 -19 -8 -10
-14 8 -19 7 -19 -5 0 -7 4 -14 9 -14 4 0 8 -5 8 -11 0 -6 -7 -9 -15 -5 -8 3
-15 1 -15 -4 0 -6 -11 -10 -24 -10 -28 0 -43 -16 -24 -23 8 -3 6 -6 -5 -6 -10
-1 -29 -8 -42 -17 -13 -8 -36 -14 -51 -12 -34 4 -45 28 -13 28 12 0 20 2 18 5
-12 11 -193 -18 -250 -40 -35 -14 -76 -25 -92 -25 -35 0 -35 -1 19 119 20 47
38 97 38 112 1 15 4 25 8 23 4 -3 10 8 14 23 3 15 14 49 25 75 10 26 18 66 18
90 -1 44 -15 111 -19 93 -1 -5 -6 8 -10 29 -4 21 -5 48 -2 58 4 18 5 18 24 1
19 -17 19 -17 13 12 -5 22 -4 26 4 15 18 -25 22 -4 6 33 -18 43 -19 50 -4 41
8 -4 9 1 4 16 -5 15 -3 20 3 16 14 -8 12 34 -2 54 -8 12 -8 13 4 3 19 -17 40
-16 40 1 0 8 6 17 13 20 16 6 -20 36 -45 36 -10 0 -18 5 -18 11 0 7 7 8 18 4
9 -4 25 -10 35 -12z m352 -53 c5 -24 4 -32 -3 -25 -6 6 -13 28 -17 50 -8 49 9
28 20 -25z m755 33 c0 -31 -42 -128 -67 -155 -9 -10 -11 -18 -5 -18 14 0 71
94 88 145 l14 40 -5 -48 c-3 -30 -21 -79 -46 -127 -38 -73 -79 -126 -79 -102
0 30 22 171 32 202 12 40 45 90 59 90 5 0 9 -12 9 -27z m-2250 13 c0 -2 -8
-10 -17 -17 -16 -13 -17 -12 -4 4 13 16 21 21 21 13z m2725 -65 c4 -27 7 -97
8 -156 l2 -107 -69 -50 -69 -50 8 33 c21 96 24 118 25 170 0 40 9 78 30 127
17 39 30 78 30 88 0 37 28 -8 35 -55z m875 1 c-19 -33 -26 -38 -58 -38 -20 1
-48 -3 -62 -7 -19 -6 -13 4 28 42 55 53 85 67 58 29 -31 -43 -16 -40 16 3 24
33 33 40 36 27 2 -10 -6 -35 -18 -56z m-1040 -56 c6 -6 10 -35 9 -65 l-1 -56
-15 35 c-8 19 -23 47 -34 61 -18 25 -18 28 -1 67 l17 41 8 -37 c4 -20 12 -41
17 -46z m-686 -64 c7 -15 21 -56 30 -92 9 -36 28 -89 41 -118 23 -49 24 -58
14 -135 -6 -50 -6 -107 -1 -145 10 -68 2 -75 -31 -30 -16 22 -20 41 -18 100 2
121 -25 312 -54 375 -18 41 -25 71 -24 117 l0 61 15 -53 c7 -29 20 -65 28 -80z
m1055 44 c-12 -40 -57 -111 -65 -103 -7 7 27 110 49 151 20 35 22 37 25 15 2
-12 -2 -41 -9 -63z m-1269 14 c11 -22 20 -46 20 -55 0 -9 7 -30 16 -46 15 -30
15 -30 -5 -19 -12 6 -28 21 -36 34 -16 24 -55 123 -55 139 0 19 42 -17 60 -53z
m2035 12 c-23 -55 -75 -94 -75 -56 0 12 -7 14 -30 9 -16 -4 -30 -3 -30 2 0 15
64 70 90 78 l25 7 -24 -26 c-14 -14 -21 -26 -17 -26 4 0 19 14 33 30 32 39 47
29 28 -18z m-2095 -18 c23 -53 24 -64 9 -64 -12 0 -39 61 -39 90 0 31 7 24 30
-26z m142 -59 c34 -78 68 -138 75 -132 2 3 -14 48 -36 100 -23 53 -41 101 -41
108 0 19 39 -21 68 -70 22 -38 62 -171 62 -209 0 -7 -27 11 -60 40 -54 47 -62
60 -85 130 -14 42 -24 92 -24 110 1 21 3 26 6 13 3 -11 19 -51 35 -90z m1699
-12 c-50 -49 -91 -94 -91 -102 0 -8 10 1 23 19 31 47 153 153 169 148 8 -3 -1
-18 -27 -43 -128 -122 -158 -152 -167 -170 -6 -11 11 3 36 30 44 48 46 49 40
20 -4 -16 -22 -44 -40 -61 -44 -41 -77 -116 -69 -154 6 -27 9 -28 43 -23 20 3
56 17 80 30 37 22 42 29 42 60 0 49 55 146 109 195 96 84 142 82 55 -2 -46
-46 -90 -107 -82 -116 3 -2 19 13 35 34 33 41 181 147 191 137 4 -3 -29 -40
-73 -82 -59 -56 -65 -65 -25 -32 30 24 70 61 88 82 19 20 38 37 43 37 15 0
-20 -73 -49 -103 -47 -49 -115 -94 -167 -110 -28 -9 -40 -16 -27 -16 41 -2 22
-18 -83 -72 -58 -29 -113 -61 -122 -71 -15 -17 -15 -18 3 -20 10 0 -3 -4 -31
-8 -45 -6 -41 -7 35 -8 47 -1 112 2 144 8 52 8 66 16 110 59 50 49 132 91 206
106 52 11 26 -9 -40 -30 -69 -22 -122 -49 -139 -69 -19 -23 -7 -20 35 9 40 27
193 79 203 69 9 -9 -79 -83 -126 -105 -24 -11 -78 -24 -120 -29 -43 -5 -91
-14 -108 -20 -64 -25 -134 -31 -215 -20 -95 13 -112 8 -274 -74 -60 -30 -112
-54 -115 -54 -14 4 -51 -14 -46 -23 3 -5 -2 -6 -11 -2 -10 4 -15 2 -11 -4 4
-6 -6 -9 -23 -8 -22 1 -27 -1 -20 -10 7 -9 4 -17 -13 -27 -35 -23 -186 -99
-192 -96 -2 2 -13 -5 -25 -14 -11 -10 -20 -16 -20 -13 0 3 -39 -14 -87 -38
-49 -25 -117 -54 -153 -66 -36 -12 -72 -26 -80 -32 -13 -10 -13 -10 0 -6 66
20 66 20 45 4 -51 -36 -360 -121 -409 -112 -24 5 -28 4 -16 -5 12 -9 10 -11
-10 -7 -14 3 -61 2 -105 -3 l-80 -9 85 3 c53 2 75 1 57 -4 -42 -12 -362 -30
-495 -28 l-117 2 115 6 115 6 -95 3 c-87 3 -91 4 -45 11 28 5 73 9 100 11 47
2 46 3 -20 9 -95 8 -67 16 105 29 143 10 261 24 350 41 40 7 38 8 -20 4 -55
-3 -43 1 75 26 77 17 156 32 176 34 65 6 192 56 221 87 51 54 51 57 -49 314
-19 50 -52 122 -74 162 -42 78 -47 98 -25 106 36 14 190 -260 226 -400 6 -24
14 -43 19 -43 9 0 27 41 62 140 13 36 47 100 76 143 30 42 49 77 44 77 -5 0
-29 -27 -52 -60 -47 -67 -63 -80 -28 -22 55 90 78 112 206 194 24 15 43 23 43
18 0 -6 -11 -15 -25 -20 -31 -12 -33 -24 -2 -15 17 5 19 4 7 -4 -8 -6 -10 -11
-5 -11 6 0 9 -36 7 -93 -2 -60 2 -116 12 -158 l15 -64 -37 -32 c-43 -37 -214
-133 -237 -133 -14 0 -14 3 -1 28 8 16 22 59 30 95 28 122 97 249 174 321 20
20 31 36 24 36 -8 0 -30 -17 -50 -37 -21 -21 -41 -38 -47 -38 -5 -1 -9 -7 -7
-13 4 -21 -19 -57 -28 -43 -5 9 -9 8 -13 -4 -5 -11 -3 -14 5 -9 8 5 9 2 5 -10
-4 -10 -7 -20 -7 -22 0 -3 -4 -2 -10 1 -21 13 -108 -211 -115 -298 -1 -16 -16
-43 -35 -62 -19 -19 -29 -35 -23 -35 6 0 100 45 209 100 170 86 208 110 264
164 128 123 186 182 218 221 18 22 13 13 -11 -20 -25 -33 -54 -69 -66 -79 -23
-21 -29 -42 -8 -30 6 4 -15 -22 -48 -56 -45 -47 -52 -59 -30 -46 29 16 29 16
-5 -15 l-35 -31 70 38 c39 21 76 46 83 56 13 18 38 26 27 8 -3 -6 1 -7 9 -4 9
3 13 11 9 17 -4 6 0 8 11 4 11 -5 15 -3 10 5 -5 7 0 9 14 6 12 -4 20 -2 17 2
-3 5 18 13 47 19 90 18 95 21 37 16 -31 -3 -72 -12 -92 -20 -20 -8 -40 -15
-44 -15 -16 1 26 20 110 50 l86 32 -6 43 c-6 50 3 115 18 115 5 0 7 -16 3 -40
-7 -45 2 -94 16 -85 6 4 8 10 5 15 -9 14 14 92 32 113 9 9 11 17 6 17 -6 0
-18 -15 -27 -32 l-16 -33 0 41 c0 55 40 130 105 198 47 49 100 84 129 86 5 0
-33 -39 -83 -87z m-81 67 c0 -5 -12 -24 -28 -42 -49 -58 -58 -72 -45 -67 7 2
30 28 53 58 30 42 40 50 40 33 0 -11 -18 -42 -40 -67 -22 -25 -45 -55 -50 -65
-6 -11 -28 -29 -50 -40 -22 -11 -55 -34 -75 -51 -38 -34 -46 -28 -14 11 11 14
41 57 66 95 68 105 143 176 143 135z m-3131 -17 c-13 -15 -12 -15 11 -2 31 17
119 20 182 7 41 -8 51 -16 73 -53 31 -53 31 -71 4 -86 -18 -9 -29 -7 -58 9
-48 26 -109 37 -127 21 -8 -6 -14 -9 -14 -5 0 4 -15 -1 -32 -10 -30 -16 -32
-16 -19 -1 11 14 11 17 0 18 -8 1 -17 1 -21 0 -5 0 -8 3 -8 8 0 5 -12 11 -27
14 -16 3 -37 13 -48 21 -20 14 -20 15 -1 33 10 10 16 12 12 6 -8 -15 10 -18
19 -3 4 6 10 8 14 5 5 -2 16 4 26 15 22 24 33 27 14 3z m2291 -15 c0 -6 -7 -5
-15 2 -8 7 -15 17 -15 22 0 6 7 5 15 -2 8 -7 15 -17 15 -22z m604 -57 c-79
-76 -128 -105 -221 -127 l-28 -7 30 24 c16 13 43 39 58 56 17 20 52 41 86 54
32 11 78 34 102 50 24 16 46 29 49 29 3 0 -31 -36 -76 -79z m-599 -15 c36 -79
52 -136 37 -136 -13 0 -27 18 -68 87 -30 48 -34 63 -29 95 9 50 20 41 60 -46z
m-965 12 c0 -27 -19 -22 -30 8 -15 39 -12 49 10 29 11 -10 20 -26 20 -37z
m2050 39 c0 -7 -19 -31 -42 -53 -53 -49 -98 -139 -98 -192 0 -37 -3 -41 -42
-58 -24 -10 -46 -20 -50 -22 -4 -2 6 11 22 28 23 24 30 42 30 70 0 22 5 42 11
46 6 3 8 17 5 30 -4 13 0 37 8 52 20 39 95 105 112 98 7 -3 16 -1 19 4 9 14
25 12 25 -3z m-1213 -34 c-3 -10 -5 -4 -5 12 0 17 2 24 5 18 2 -7 2 -21 0 -30z
m50 15 c-3 -8 -6 -5 -6 6 -1 11 2 17 5 13 3 -3 4 -12 1 -19z m758 -38 c-14
-27 -38 -64 -53 -82 -15 -18 -42 -53 -59 -76 -45 -62 -178 -207 -220 -239 -33
-26 -36 -26 -48 -9 -22 29 -39 149 -29 198 l9 43 65 6 c121 10 176 38 282 143
37 36 69 66 73 66 3 0 -6 -22 -20 -50z m-1560 -48 c42 -57 61 -96 69 -142 l7
-35 -26 30 c-67 77 -105 134 -113 172 -9 40 -9 42 9 32 11 -5 35 -31 54 -57z
m420 58 c7 -11 -25 -124 -32 -116 -3 3 -2 32 2 65 7 58 16 74 30 51z m-383
-37 c43 -44 88 -135 88 -178 1 -16 7 -41 15 -55 22 -38 18 -49 -5 -12 -11 17
-24 32 -29 32 -5 0 -13 21 -16 48 -7 54 -32 117 -52 134 -22 18 -55 68 -46 68
5 0 25 -17 45 -37z m-861 10 c9 -11 10 -14 2 -9 -7 4 -23 2 -35 -5 -23 -12
-23 -12 -4 10 23 25 20 25 37 4z m1545 -10 c-10 -10 -19 5 -10 18 6 11 8 11
12 0 2 -7 1 -15 -2 -18z m21 -5 c-3 -7 -5 -2 -5 12 0 14 2 19 5 13 2 -7 2 -19
0 -25z m-1671 12 c43 -17 24 -19 -46 -5 -60 12 -62 13 -23 14 23 1 54 -4 69
-9z m-859 -6 c-3 -3 -12 -4 -19 -1 -8 3 -5 6 6 6 11 1 17 -2 13 -5z m723 2 c0
-3 -4 -8 -10 -11 -5 -3 -10 -1 -10 4 0 6 5 11 10 11 6 0 10 -2 10 -4z m983
-35 c3 -14 1 -18 -9 -14 -8 3 -14 14 -14 25 0 23 16 16 23 -11z m817 -31 c5 0
10 -6 10 -14 0 -8 13 -43 30 -78 23 -49 30 -77 30 -125 0 -74 -17 -94 -23 -26
-2 30 -4 20 -3 -24 0 -102 -10 -100 -17 4 -6 84 -26 165 -61 245 -9 21 -16 48
-16 60 0 21 2 20 20 -9 11 -18 24 -33 30 -33z m-2365 40 c-3 -5 -12 -10 -18
-10 -7 0 -6 4 3 10 19 12 23 12 15 0z m698 -9 c9 -10 3 -11 -28 -5 -22 4 -55
7 -74 7 -25 -1 -30 2 -20 8 19 13 107 5 122 -10z m252 9 c3 -5 2 -10 -4 -10
-5 0 -13 5 -16 10 -3 6 -2 10 4 10 5 0 13 -4 16 -10z m1445 -10 c-6 -11 -13
-20 -16 -20 -2 0 0 9 6 20 6 11 13 20 16 20 2 0 0 -9 -6 -20z m88 -59 c23 -39
42 -73 42 -77 0 -3 -15 -26 -32 -51 l-33 -45 -12 62 c-7 34 -22 75 -34 92 -21
29 -21 31 -5 65 9 19 20 32 24 29 5 -3 27 -36 50 -75z m-1578 60 c0 -5 -8 -11
-17 -13 -13 -3 -6 -9 21 -21 57 -25 39 -30 -25 -7 -30 10 -46 19 -36 20 9 0
17 4 17 9 0 5 8 12 18 14 9 3 18 5 20 6 1 0 2 -3 2 -8z m2170 4 c0 -2 -19 -17
-43 -33 -50 -35 -134 -62 -191 -62 -36 1 -39 2 -21 12 11 7 39 11 62 9 44 -3
115 23 160 59 26 20 33 24 33 15z m-774 -42 c8 -21 21 -51 29 -68 22 -49 45
-192 45 -282 0 -84 -12 -104 -24 -39 -8 39 -67 158 -118 237 -75 115 -74 111
-42 146 52 55 89 57 110 6z m-1633 12 c8 -8 18 -11 22 -7 4 4 -2 -9 -14 -28
-25 -42 -30 -90 -6 -70 9 7 15 8 15 2 0 -5 -6 -12 -14 -15 -7 -3 -16 -20 -18
-37 -4 -27 -1 -33 20 -41 37 -14 21 -20 -29 -10 -24 5 -36 9 -26 10 9 1 17 6
17 12 0 8 -15 10 -46 6 -25 -2 -42 -1 -37 3 4 5 21 10 37 12 16 2 32 9 34 17
4 11 -3 13 -29 8 -24 -5 -30 -4 -19 3 8 5 23 10 33 10 12 0 17 8 17 26 l0 27
-67 -6 c-81 -8 -74 10 8 20 30 3 60 10 67 16 8 6 12 5 12 -4 0 -10 3 -10 12
-1 13 13 -4 39 -37 52 -18 8 -17 9 7 9 15 1 33 -6 41 -14z m154 9 c-3 -3 -12
-4 -19 -1 -8 3 -5 6 6 6 11 1 17 -2 13 -5z m133 2 c0 -3 -4 -8 -10 -11 -5 -3
-10 -1 -10 4 0 6 5 11 10 11 6 0 10 -2 10 -4z m-1050 -16 c8 -5 11 -12 7 -16
-3 -4 -12 -2 -19 4 -7 5 -26 12 -43 15 -29 4 -29 4 5 5 19 1 42 -2 50 -8z
m136 -5 c-21 -16 -32 -13 -21 4 3 6 14 11 23 11 15 -1 15 -2 -2 -15z m269 -3
c-3 -3 -11 0 -18 7 -9 10 -8 11 6 5 10 -3 15 -9 12 -12z m-638 2 c-3 -3 -12
-4 -19 -1 -8 3 -5 6 6 6 11 1 17 -2 13 -5z m431 -11 c-2 -9 -9 -18 -16 -21 -8
-2 -10 2 -6 13 6 16 5 16 -27 0 l-34 -16 25 20 c31 25 63 28 58 4z m364 6 c20
-11 19 -12 -14 -48 -110 -114 -125 -132 -95 -115 6 4 3 -2 -7 -14 -11 -12 -15
-22 -10 -22 5 0 1 -5 -9 -11 -9 -6 -15 -14 -12 -19 3 -5 -4 -12 -16 -15 -17
-6 -19 -9 -8 -16 11 -7 9 -10 -9 -15 -16 -5 -20 -9 -12 -14 9 -5 6 -10 -9 -15
-12 -3 -19 -11 -15 -16 3 -6 -3 -13 -15 -16 -12 -3 -21 -12 -21 -19 0 -9 -11
-14 -29 -14 -16 0 -36 -7 -45 -15 -16 -16 -68 -19 -101 -6 -11 5 -25 4 -32 -1
-19 -15 -196 27 -255 60 -29 16 -71 33 -93 36 -49 9 -154 46 -161 57 -3 5 7 4
23 -3 17 -6 105 -12 218 -14 105 -2 226 -6 270 -10 44 -3 105 -1 136 4 54 10
130 52 160 88 15 19 21 74 8 74 -12 0 -30 -36 -21 -44 3 -4 -1 -4 -11 0 -23 8
-22 21 3 34 11 6 20 17 20 25 0 23 -16 18 -28 -10 -11 -24 -42 -26 -42 -3 0 5
-10 6 -22 3 -23 -7 -23 -7 -3 9 20 17 20 17 -5 11 l-25 -6 25 15 c15 9 29 11
36 5 6 -5 15 -5 19 -1 5 4 5 -1 2 -10 -8 -23 9 -24 17 -1 4 9 1 20 -5 24 -24
14 4 29 55 29 35 0 58 5 66 15 15 18 43 19 72 4z m3351 5 c22 -22 -83 -109
-169 -141 -70 -25 -77 -20 -45 33 31 52 190 132 214 108z m-2175 -104 c12 -18
22 -44 22 -57 0 -22 -2 -22 -41 14 -46 43 -89 105 -89 129 0 21 75 -39 108
-86z m1593 61 c-12 -17 -24 -52 -28 -80 -3 -27 -8 -53 -12 -59 -6 -10 -191
-93 -191 -86 0 2 19 28 43 57 23 29 58 76 77 106 24 36 49 60 80 76 25 13 47
22 49 20 2 -2 -7 -17 -18 -34z m-3081 15 c0 -8 -7 -17 -16 -20 -14 -5 -15 -4
-4 9 11 13 10 14 -5 9 -13 -5 -16 -4 -11 4 10 17 36 15 36 -2z m445 4 c16 -7
13 -9 -17 -9 -20 -1 -43 -4 -52 -7 -9 -3 -16 -1 -16 4 0 19 52 26 85 12z
m1175 -21 c0 -6 -4 -7 -10 -4 -5 3 -10 11 -10 16 0 6 5 7 10 4 6 -3 10 -11 10
-16z m-2061 7 c-2 -2 -47 -6 -99 -9 -57 -3 -77 -2 -50 3 48 8 156 12 149 6z
m3667 -62 c-6 -22 -62 -61 -73 -51 -7 7 26 68 51 95 l21 24 3 -22 c2 -12 1
-33 -2 -46z m-3479 50 c-3 -3 -12 -4 -19 -1 -8 3 -5 6 6 6 11 1 17 -2 13 -5z
m287 -3 c3 -5 0 -11 -7 -14 -8 -3 -14 1 -14 9 0 16 13 19 21 5z m526 -1 c0 -5
-7 -10 -15 -10 -8 0 -15 5 -15 10 0 6 7 10 15 10 8 0 15 -4 15 -10z m-987 -7
c-7 -2 -21 -2 -30 0 -10 3 -4 5 12 5 17 0 24 -2 18 -5z m282 -15 c7 -7 -1 -9
-24 -4 -18 3 -45 7 -60 7 -25 1 -25 2 4 9 33 8 65 3 80 -12z m805 8 c0 -7 -10
-26 -21 -41 -18 -22 -20 -29 -8 -36 11 -7 9 -9 -7 -9 -15 0 -24 -8 -28 -25 -4
-14 -13 -25 -22 -25 -11 0 -12 4 -4 19 11 21 -2 37 -20 26 -5 -3 -10 -2 -10 4
0 5 12 11 27 13 31 4 42 24 16 31 -14 4 -13 5 4 6 13 0 30 12 39 26 18 27 34
33 34 11z m210 10 c0 -3 -11 -17 -25 -32 -28 -30 -34 -21 -9 14 13 19 34 30
34 18z m-280 -15 c0 -5 -10 -11 -22 -14 -22 -6 -22 -6 -4 8 23 17 26 18 26 6z
m1090 -15 c4 -13 11 -57 14 -97 l6 -74 -30 75 c-16 41 -30 85 -30 97 0 31 28
30 40 -1z m-1220 6 c0 -4 -17 -14 -37 -21 -65 -24 -69 -23 -23 3 48 27 60 30
60 18z m1247 -14 c-3 -8 -6 -5 -6 6 -1 11 2 17 5 13 3 -3 4 -12 1 -19z m-1832
-8 c-3 -5 -13 -10 -21 -10 -8 0 -12 5 -9 10 3 6 13 10 21 10 8 0 12 -4 9 -10z
m491 -62 c8 -16 11 -28 6 -28 -11 0 -62 78 -62 93 0 14 34 -26 56 -65z m1619
-18 c30 -52 135 -338 135 -366 0 -9 -120 4 -159 17 -19 7 -38 24 -48 43 -31
60 -33 320 -2 377 14 27 25 17 74 -71z m609 -120 c6 -23 6 -23 -5 -5 -7 10
-13 63 -15 120 l-2 100 7 -95 c4 -52 11 -106 15 -120z m-2304 190 c0 -5 -5
-10 -11 -10 -5 0 -7 5 -4 10 3 6 8 10 11 10 2 0 4 -4 4 -10z m435 -13 c7 -6 2
-8 -15 -3 -14 3 -31 6 -37 6 -7 0 -13 5 -13 10 0 12 50 2 65 -13z m-1632 6
c-7 -2 -19 -2 -25 0 -7 3 -2 5 12 5 14 0 19 -2 13 -5z m104 1 c-3 -3 -12 -4
-19 -1 -8 3 -5 6 6 6 11 1 17 -2 13 -5z m50 0 c-3 -3 -12 -4 -19 -1 -8 3 -5 6
6 6 11 1 17 -2 13 -5z m376 -1 c-29 -2 -77 -2 -105 0 -29 2 -6 3 52 3 58 0 81
-1 53 -3z m1187 -5 c0 -6 -3 -8 -7 -5 -3 4 -12 -2 -20 -13 -8 -11 -19 -20 -24
-20 -6 0 -3 7 5 16 9 8 16 20 16 25 0 5 7 9 15 9 8 0 15 -5 15 -12z m907 -25
c-3 -10 -5 -4 -5 12 0 17 2 24 5 18 2 -7 2 -21 0 -30z m-246 -88 c28 -44 114
-125 133 -125 29 0 255 -211 282 -262 10 -19 11 -34 5 -51 -8 -20 -23 -27
-108 -46 -155 -34 -207 -41 -378 -48 l-159 -6 18 29 c11 16 36 46 57 68 23 23
47 62 60 98 22 59 60 96 139 135 l25 13 -30 -4 c-16 -2 -45 -10 -63 -17 -31
-13 -35 -12 -48 5 -22 31 -17 44 26 74 57 39 52 61 -7 27 -40 -24 -45 -25 -39
-9 12 30 19 74 13 74 -4 0 -13 -13 -22 -30 -9 -16 -19 -30 -24 -30 -5 0 -19
16 -30 36 -20 34 -21 39 -8 68 8 17 23 50 32 73 l18 42 41 -36 c23 -20 53 -55
67 -78z m-2094 99 c-3 -3 -12 -4 -19 -1 -8 3 -5 6 6 6 11 1 17 -2 13 -5z m192
2 c-7 -8 -159 -9 -166 -2 -3 3 33 6 82 6 49 0 86 -2 84 -4z m745 -5 c3 -5 -5
-12 -18 -15 -13 -3 -32 -9 -42 -13 -12 -4 -15 -3 -10 6 14 22 61 37 70 22z
m3094 -13 c-4 -29 -77 -66 -148 -74 l-55 -6 65 34 c36 19 77 42 90 51 34 24
52 22 48 -5z m-3431 6 c-3 -3 -12 -4 -19 -1 -8 3 -5 6 6 6 11 1 17 -2 13 -5z
m716 -1 c-7 -2 -19 -2 -25 0 -7 3 -2 5 12 5 14 0 19 -2 13 -5z m880 -10 c18
-21 57 -108 57 -130 0 -11 -6 -10 -30 7 -37 26 -60 69 -60 110 0 34 10 38 33
13z m-1546 1 c-3 -3 -12 -4 -19 -1 -8 3 -5 6 6 6 11 1 17 -2 13 -5z m800 -26
c-3 -7 -5 -2 -5 12 0 14 2 19 5 13 2 -7 2 -19 0 -25z m-1487 2 c11 -8 7 -9
-15 -4 -37 8 -45 14 -19 14 10 0 26 -5 34 -10z m990 1 c0 -14 -58 -32 -65 -20
-4 5 4 13 17 18 30 13 48 13 48 2z m379 -15 c-19 -42 -49 -50 -131 -38 l-73
11 71 -4 c68 -3 73 -2 100 26 34 35 47 37 33 5z m808 -35 c14 -25 36 -57 47
-71 l21 -25 -24 20 c-31 26 -103 135 -85 128 8 -3 26 -26 41 -52z m-2260 43
c-3 -3 -12 -4 -19 -1 -8 3 -5 6 6 6 11 1 17 -2 13 -5z m220 -1 c-20 -2 -52 -2
-70 0 -17 2 0 4 38 4 39 0 53 -2 32 -4z m211 0 c-26 -2 -71 -2 -100 0 -29 2
-8 3 47 3 55 0 79 -1 53 -3z m952 -3 c8 -5 11 -10 5 -10 -5 0 -17 5 -25 10 -8
5 -10 10 -5 10 6 0 17 -5 25 -10z m2790 -9 c-10 -19 -26 -25 -105 -36 -39 -6
-39 -6 11 13 29 11 60 25 70 31 28 16 36 13 24 -8z m-3732 -8 c-21 -2 -57 -2
-80 0 -24 2 -7 4 37 4 44 0 63 -2 43 -4z m562 -25 c0 -6 -7 -5 -15 2 -8 7 -15
17 -15 22 0 6 7 5 15 -2 8 -7 15 -17 15 -22z m81 18 c-10 -11 -8 -15 6 -19 10
-2 1 -4 -19 -3 -40 0 -41 2 -6 22 31 16 32 16 19 0z m151 -28 c31 -45 33 -144
2 -185 -12 -15 -25 -27 -30 -26 -5 1 -15 21 -21 44 -7 24 -29 59 -48 79 -40
41 -43 57 -14 94 31 39 80 36 111 -6z m1865 -64 c-13 -33 -37 -96 -52 -142
-15 -46 -28 -82 -30 -80 -6 6 45 171 72 230 33 75 42 69 10 -8z m-652 6 c10 0
15 -10 15 -30 0 -63 215 -240 291 -240 10 0 20 -4 23 -8 3 -5 -15 -6 -40 -2
-25 4 -41 3 -37 -1 5 -5 40 -13 78 -18 57 -7 63 -9 30 -11 -39 -2 -39 -3 -10
-10 24 -6 26 -8 7 -9 -12 0 -21 -6 -20 -13 2 -7 -24 -27 -57 -45 -68 -37 -85
-41 -62 -15 25 27 21 60 -14 103 -17 21 -28 43 -25 48 4 5 1 13 -5 17 -8 5 -9
3 -4 -7 5 -8 -5 0 -21 16 -16 17 -55 52 -86 79 -72 61 -84 79 -91 141 -5 36
-4 44 3 28 5 -13 16 -23 25 -23z m-1037 20 c7 0 17 -11 23 -24 27 -57 -70
-156 -153 -156 -43 0 -44 3 -23 53 8 20 15 52 15 72 0 19 1 35 3 35 1 0 20 7
42 15 22 8 49 13 60 10 11 -3 26 -5 33 -5z m-441 -16 c-12 -13 -117 -52 -117
-44 0 11 21 26 55 38 34 12 72 15 62 6z m563 2 c0 -2 -9 -6 -20 -9 -11 -3 -18
-1 -14 4 5 9 34 13 34 5z m-408 -43 c65 -69 70 -134 10 -148 -59 -12 -125 33
-143 98 -15 55 7 87 59 87 31 0 45 -7 74 -37z m-212 -12 c0 -6 -4 -13 -10 -16
-5 -3 -10 1 -10 9 0 9 5 16 10 16 6 0 10 -4 10 -9z m-583 -38 c6 -21 10 -39 8
-41 -5 -5 -35 54 -35 68 0 23 16 7 27 -27z m-78 -69 c0 -35 -4 -66 -9 -69 -6
-4 -10 25 -10 77 0 51 4 78 9 69 5 -7 9 -42 10 -77z m18 49 c-3 -10 -5 -4 -5
12 0 17 2 24 5 18 2 -7 2 -21 0 -30z m583 27 c0 -13 -11 -13 -30 0 -12 8 -11
10 8 10 12 0 22 -4 22 -10z m1246 -31 c-13 -32 -14 -32 -15 -8 -1 14 4 30 11
37 19 19 20 7 4 -29z m-1628 -53 c33 -17 45 -33 16 -22 -14 5 -15 4 -4 -9 7
-9 8 -15 2 -15 -6 0 -19 11 -29 25 -10 14 -29 27 -42 30 -34 6 -55 26 -39 36
9 6 8 10 -5 15 -9 3 -17 11 -17 16 0 6 19 -5 43 -24 23 -19 57 -43 75 -52z
m-27 57 c13 -15 12 -15 -8 -4 -24 12 -29 21 -14 21 5 0 15 -7 22 -17z m509 7
c0 -5 -6 -10 -14 -10 -8 0 -18 5 -21 10 -3 6 3 10 14 10 12 0 21 -4 21 -10z
m-743 -37 c-3 -10 -5 -4 -5 12 0 17 2 24 5 18 2 -7 2 -21 0 -30z m292 23 c10
-12 8 -13 -9 -9 -25 7 -37 23 -17 23 8 0 20 -6 26 -14z m157 -9 c4 -4 0 -7 -9
-7 -9 0 -18 4 -21 9 -7 10 20 9 30 -2z m-75 -26 c19 -25 28 -29 90 -33 69 -5
89 -12 76 -25 -8 -7 -216 27 -222 37 -2 3 10 5 28 3 l32 -4 -22 17 c-24 17
-30 34 -13 34 5 0 19 -13 31 -29z m144 19 c3 -5 -1 -10 -9 -10 -9 0 -16 5 -16
10 0 6 4 10 9 10 6 0 13 -4 16 -10z m35 0 c0 -5 -4 -10 -10 -10 -5 0 -10 5
-10 10 0 6 5 10 10 10 6 0 10 -4 10 -10z m185 -20 l60 -9 -64 4 c-35 2 -68 8
-75 15 -8 8 -7 10 4 6 8 -4 42 -10 75 -16z m511 -17 c-11 -11 -17 4 -9 23 7
18 8 18 11 1 2 -10 1 -21 -2 -24z m604 29 c0 -10 -151 -85 -157 -78 -9 8 8 26
25 27 9 0 40 13 67 29 55 30 65 34 65 22z m64 -30 c-21 -5 -26 2 -18 22 6 15
7 15 20 -1 11 -15 10 -19 -2 -21z m-1285 2 c3 -16 1 -17 -13 -5 -19 16 -21 34
-3 29 6 -3 14 -13 16 -24z m-119 6 l25 -8 -25 0 c-14 0 -34 3 -45 8 l-20 9 20
-1 c11 0 31 -4 45 -8z m660 0 c-8 -5 -22 -9 -30 -9 -10 0 -8 3 5 9 27 12 43
12 25 0z m693 -28 c-3 -12 -9 -22 -14 -22 -12 0 -11 7 3 30 15 24 19 21 11 -8z
m-1007 -17 c80 -16 139 -23 179 -20 55 5 57 4 25 -6 -45 -15 -165 -5 -254 21
-38 11 -71 22 -74 25 -8 8 -4 7 124 -20z m359 15 c-3 -6 -21 -18 -38 -27 l-32
-17 30 -7 30 -7 -32 -1 c-63 -2 -68 10 -16 39 52 30 68 35 58 20z m325 5 c0
-2 -30 -14 -67 -25 -38 -12 -81 -25 -97 -30 -56 -18 -11 8 59 33 66 24 105 33
105 22z m420 0 c0 -10 -91 -56 -102 -52 -7 2 10 16 37 30 50 26 65 31 65 22z
m-1515 -52 c79 -30 123 -53 102 -53 -5 0 -165 57 -209 75 -10 4 -18 12 -18 17
0 6 8 7 18 3 9 -4 58 -23 107 -42z m251 33 c10 2 73 -12 139 -31 115 -34 117
-35 56 -29 -36 4 -96 17 -135 30 l-71 24 28 -25 c15 -13 27 -27 27 -30 0 -22
-73 24 -91 56 -9 18 -8 19 9 10 10 -5 27 -8 38 -5z m878 5 c8 -13 -4 -42 -14
-36 -5 3 -11 1 -15 -5 -4 -6 11 -8 42 -5 l48 5 -45 -15 c-27 -9 -76 -14 -125
-13 -78 1 -79 1 -25 8 30 4 45 7 33 8 -31 3 -29 22 2 22 14 0 25 4 25 8 0 5
12 13 28 19 36 14 40 15 46 4z m-1567 -33 c-3 -7 -5 -2 -5 12 0 14 2 19 5 13
2 -7 2 -19 0 -25z m233 16 l25 -15 -25 7 c-14 3 -32 10 -40 15 -13 7 -13 8 0
8 8 0 26 -6 40 -15z m1016 1 c16 -12 16 -14 3 -15 -9 0 -22 7 -29 15 -16 19 0
19 26 0z m424 -4 c15 -28 12 -39 -5 -17 -7 10 -18 15 -23 12 -6 -3 -12 1 -16
9 -8 23 31 19 44 -4z m133 12 c-7 -2 -19 -2 -25 0 -7 3 -2 5 12 5 14 0 19 -2
13 -5z m-1323 -18 c7 -8 8 -15 2 -15 -5 0 -15 7 -22 15 -7 8 -8 15 -2 15 5 0
15 -7 22 -15z m-269 -119 c38 -38 66 -72 63 -75 -3 -3 -27 17 -53 44 -26 28
-58 58 -69 67 -15 12 -22 28 -21 50 1 27 3 29 6 8 3 -13 36 -56 74 -94z m82
24 c85 -65 207 -119 238 -107 8 3 5 6 -8 6 -61 2 -272 130 -217 131 12 0 39
-13 62 -29 58 -43 131 -79 175 -86 39 -8 49 -21 20 -28 -10 -3 6 -5 35 -6 37
-1 51 -4 46 -12 -5 -8 -29 -10 -74 -6 -118 10 -239 73 -363 190 -50 47 -29 34
86 -53z m1452 75 c-27 -8 -51 -12 -54 -10 -2 3 2 7 10 9 8 2 21 7 29 9 8 3 26
5 40 5 15 0 5 -5 -25 -13z m-679 -10 c-10 -8 -24 -11 -29 -8 -6 4 -2 10 9 14
31 12 40 9 20 -6z m594 -6 c0 -6 -4 -7 -10 -4 -5 3 -10 11 -10 16 0 6 5 7 10
4 6 -3 10 -11 10 -16z m-1040 -9 c50 -14 58 -19 34 -19 -33 -1 -93 16 -108 30
-14 13 0 11 74 -11z m640 10 c-8 -5 -24 -10 -35 -10 -17 0 -17 2 -5 10 8 5 24
10 35 10 17 0 17 -2 5 -10z m-1263 -47 c-3 -10 -5 -2 -5 17 0 19 2 27 5 18 2
-10 2 -26 0 -35z m1759 38 c-3 -4 -26 -16 -51 -25 -25 -10 -42 -22 -39 -28 4
-6 -1 -8 -12 -5 -11 3 -36 9 -56 13 -21 3 -38 11 -38 16 0 6 7 7 16 4 38 -14
67 -18 73 -9 3 5 26 17 51 25 56 19 63 20 56 9z m50 -57 c-20 -19 -36 -32 -36
-29 0 14 65 85 68 75 2 -6 -12 -27 -32 -46z m-466 36 c0 -5 -4 -10 -9 -10 -6
0 -13 5 -16 10 -3 6 1 10 9 10 9 0 16 -4 16 -10z m145 0 c-3 -5 -10 -10 -16
-10 -5 0 -9 5 -9 10 0 6 7 10 16 10 8 0 12 -4 9 -10z m45 1 c0 -12 -41 -63
-47 -57 -4 4 37 66 44 66 2 0 3 -4 3 -9z m327 -39 c-26 -37 -83 -79 -94 -69
-3 3 9 13 26 22 17 8 43 34 58 55 14 22 28 38 31 35 3 -2 -7 -22 -21 -43z
m-1007 28 c0 -5 -15 -10 -32 -9 -31 1 -32 1 -8 9 35 11 40 11 40 0z m237 0
c-56 -10 -118 -13 -162 -9 -35 3 86 15 160 16 l50 1 -48 -8z m186 3 c-7 -2
-19 -2 -25 0 -7 3 -2 5 12 5 14 0 19 -2 13 -5z m457 -73 c-59 -67 -109 -110
-126 -110 -5 0 34 42 86 93 52 51 97 92 99 91 2 -2 -24 -35 -59 -74z m-961 54
c2 -2 -10 -4 -27 -4 -18 0 -32 5 -32 10 0 9 47 4 59 -6z m956 6 c-3 -5 -13
-10 -21 -10 -8 0 -12 5 -9 10 3 6 13 10 21 10 8 0 12 -4 9 -10z m-529 -16 c46
-7 144 -46 144 -56 0 -5 -6 -8 -12 -5 -7 3 -66 18 -130 33 -65 16 -118 33
-118 38 0 7 26 5 116 -10z m184 6 c-18 -11 -104 -11 -140 0 -17 5 5 8 65 9 61
0 85 -2 75 -9z m-735 -10 c3 -5 -3 -10 -15 -10 -12 0 -18 5 -15 10 3 6 10 10
15 10 5 0 12 -4 15 -10z m140 -13 c7 -6 -1 -8 -24 -3 -18 3 -46 6 -62 6 -16 0
-29 5 -29 10 0 13 101 2 115 -13z m-596 -33 c12 -19 25 -33 30 -29 5 3 13 0
17 -6 4 -7 3 -9 -4 -5 -5 3 -12 0 -15 -6 -7 -20 -57 32 -57 59 0 31 4 29 29
-13z m576 16 c27 -7 26 -8 -15 -8 -25 0 -54 3 -65 8 -16 7 -13 9 15 8 19 0 49
-4 65 -8z m300 -5 c22 -2 58 -4 80 -4 29 -1 36 -4 28 -12 -13 -13 -286 7 -313
22 -13 8 71 5 205 -6z m494 2 c-2 -2 -23 -18 -47 -36 -24 -19 -45 -31 -48 -29
-2 3 17 21 42 42 26 20 50 34 52 31 3 -3 3 -6 1 -8z m37 -3 c-3 -9 -6 -18 -6
-20 0 -2 -10 -4 -22 -4 -20 0 -21 1 -3 20 22 24 40 26 31 4z m-779 -28 c10
-10 -62 -7 -137 6 -38 7 -70 15 -70 18 0 7 199 -16 207 -24z m624 10 c-12 -13
-45 -36 -72 -51 -44 -23 -50 -25 -47 -10 3 16 110 85 132 85 5 0 -1 -11 -13
-24z m-1146 4 c3 -5 1 -10 -4 -10 -6 0 -11 5 -11 10 0 6 2 10 4 10 3 0 8 -4
11 -10z m285 -6 l35 -14 -50 5 c-27 3 -54 10 -59 15 -15 15 33 11 74 -6z m295
6 c7 -12 -12 -12 -40 0 -18 8 -17 9 7 9 15 1 30 -3 33 -9z m720 -30 c-54 -32
-179 -76 -248 -86 -64 -10 -40 3 64 35 52 15 121 40 154 54 80 35 91 33 30 -3z
m-490 -11 c22 -6 11 -8 -41 -5 -67 4 -210 -5 -338 -20 -39 -5 -57 -4 -53 3 4
6 35 13 69 17 35 4 88 11 118 15 64 8 202 3 245 -10z m-703 -15 c75 -31 231
-115 225 -120 -12 -12 -264 103 -286 130 -18 22 -11 20 61 -10z m833 16 c-28
-12 -37 -12 -30 0 3 6 16 10 28 9 21 0 21 -1 2 -9z m390 -10 c-10 -11 -28 -20
-39 -20 -20 0 -20 1 4 20 34 27 59 27 35 0z m86 -31 c-25 -21 -51 -25 -51 -9
0 12 62 41 70 33 3 -2 -6 -13 -19 -24z m-1320 -23 c46 -25 111 -52 144 -62 33
-9 54 -19 47 -22 -25 -8 -136 30 -205 71 -60 36 -87 57 -74 57 3 0 42 -20 88
-44z m624 24 c4 -7 -3 -8 -22 -4 -38 9 -42 14 -10 14 14 0 29 -5 32 -10z
m-202 -17 c27 -14 29 -18 13 -21 -15 -3 -16 -6 -5 -13 9 -6 -26 -7 -91 -3
l-105 6 45 -27 c25 -15 60 -34 79 -42 43 -18 36 -25 -14 -12 -55 15 -115 56
-115 78 0 16 9 18 93 15 86 -2 90 -2 65 12 -16 8 -28 17 -28 19 0 10 33 4 63
-12z m362 7 c-3 -5 -10 -10 -16 -10 -5 0 -9 5 -9 10 0 6 7 10 16 10 8 0 12 -4
9 -10z m-215 -5 c0 -11 -54 -26 -69 -19 -13 5 -11 8 9 14 31 10 60 12 60 5z
m324 -7 c-8 -12 -85 -50 -91 -44 -3 2 8 13 23 22 l27 18 -24 7 c-16 4 -9 6 23
6 26 0 45 -4 42 -9z m231 2 c4 -6 -6 -10 -22 -10 -22 0 -25 2 -13 10 19 12 27
12 35 0z m-376 -6 c17 -4 31 -10 31 -15 0 -9 -50 -2 -85 12 -19 8 -19 8 1 8
12 1 36 -2 53 -5z m565 -15 c-10 -12 -36 -30 -56 -40 -20 -10 -53 -30 -74 -44
-20 -14 -41 -25 -47 -25 -19 0 17 32 62 55 25 13 62 35 81 49 43 31 60 33 34
5z m-1094 1 c0 -5 -4 -10 -10 -10 -5 0 -10 5 -10 10 0 6 5 10 10 10 6 0 10 -4
10 -10z m1389 -6 c8 -7 -73 -3 -119 6 -34 6 -25 7 35 3 44 -3 82 -7 84 -9z
m-1659 -24 c0 -15 -5 -12 -26 11 -19 22 -19 22 4 10 12 -6 22 -16 22 -21z
m1247 5 c-15 -14 -35 -25 -43 -25 -8 0 -32 -9 -54 -20 -22 -11 -52 -20 -67
-19 l-28 0 25 11 c14 6 57 25 95 44 85 40 111 43 72 9z m262 16 c14 -4 -9 -7
-54 -7 -45 0 -68 3 -54 7 13 4 38 7 54 7 17 0 41 -3 54 -7z m-1464 -11 c3 -5
-1 -10 -9 -10 -9 0 -16 5 -16 10 0 6 4 10 9 10 6 0 13 -4 16 -10z m1115 1 c0
-18 -65 -31 -151 -31 -49 0 -89 4 -89 9 0 4 48 12 108 18 59 5 113 10 120 11
6 1 12 -2 12 -7z m-365 -11 c-3 -5 -47 -10 -96 -10 -58 0 -88 4 -84 10 3 6 47
10 96 10 58 0 88 -4 84 -10z m-395 -4 c0 -2 -9 -6 -20 -9 -11 -3 -18 -1 -14 4
5 9 34 13 34 5z m76 -15 c-8 -12 -66 -22 -80 -14 -6 5 1 10 19 14 45 10 67 10
61 0z m-436 -11 c0 -5 -2 -10 -4 -10 -3 0 -8 5 -11 10 -3 6 -1 10 4 10 6 0 11
-4 11 -10z m95 0 c16 -7 11 -9 -22 -9 -23 -1 -45 4 -48 9 -8 12 42 12 70 0z
m461 -6 c66 -19 70 -29 8 -19 -57 8 -74 14 -74 26 0 12 3 12 66 -7z m164 2 c0
-6 -132 -76 -142 -76 -16 0 -7 22 11 27 10 2 40 15 67 28 50 24 64 28 64 21z
m-475 -22 c-60 -16 -73 -17 -59 -5 12 12 41 19 79 19 23 0 19 -3 -20 -14z
m674 0 c2 -2 1 -7 -3 -11 -7 -8 -56 -8 -136 0 -65 6 -67 6 -50 18 14 9 178 3
189 -7z m-429 -4 c0 -5 -16 -10 -35 -10 -19 0 -35 5 -35 10 0 6 16 10 35 10
19 0 35 -4 35 -10z m-469 -24 c24 -13 67 -29 94 -35 28 -7 80 -30 118 -53 l67
-41 -32 -23 c-17 -13 -35 -24 -38 -24 -3 0 -58 -38 -121 -85 -62 -46 -117 -85
-121 -85 -5 0 -8 33 -8 73 0 39 -3 123 -7 185 -3 61 -4 112 -1 112 3 0 25 -11
49 -24z m993 4 c-38 -14 -94 -21 -94 -11 0 12 69 29 94 23 19 -5 19 -5 0 -12z
m100 -5 c-10 -8 -23 -14 -29 -14 -5 -1 1 8 15 19 14 10 27 17 29 14 3 -2 -4
-11 -15 -19z m-1034 -5 c13 -9 13 -10 0 -10 -8 0 -22 5 -30 10 -13 9 -13 10 0
10 8 0 22 -5 30 -10z m740 -6 c0 -2 -7 -4 -15 -4 -8 0 -15 4 -15 10 0 5 7 7
15 4 8 -4 15 -8 15 -10z m230 1 c-7 -8 -24 -15 -39 -14 l-26 1 30 13 c40 18
50 18 35 0z m-755 -66 c70 -34 70 -34 206 -32 145 2 295 28 378 64 57 25 66
24 17 -3 -79 -41 -152 -59 -307 -74 -177 -17 -221 -12 -304 35 -27 15 -67 33
-87 40 -20 7 -42 19 -49 27 -13 16 20 3 146 -57z m160 61 c7 -12 -38 -12 -75
0 -20 7 -16 8 22 9 26 1 50 -3 53 -9z m-15 -25 l65 -13 -55 -1 c-77 -1 -202
17 -214 30 -13 13 103 4 204 -16z m77 19 c-3 -3 -12 -4 -19 -1 -8 3 -5 6 6 6
11 1 17 -2 13 -5z m120 0 c-3 -3 -12 -4 -19 -1 -8 3 -5 6 6 6 11 1 17 -2 13
-5z m130 -10 c-3 -3 -12 -4 -19 -1 -8 3 -5 6 6 6 11 1 17 -2 13 -5z m-122 -19
c-33 -7 -64 -10 -70 -7 -11 7 49 19 100 20 17 0 4 -6 -30 -13z m345 5 c0 -5
-12 -10 -27 -9 -25 0 -26 1 -8 9 27 12 35 12 35 0z m40 -15 c0 -10 -91 -45
-113 -44 -18 0 -15 4 13 16 19 9 49 19 65 23 17 5 31 8 33 9 1 1 2 -1 2 -4z
m-657 -16 c-8 -8 -16 -8 -30 0 -16 9 -14 10 12 11 21 0 26 -3 18 -11z m132 -9
c-3 -5 -16 -10 -28 -9 -21 0 -21 1 -2 9 28 12 37 12 30 0z m88 3 c-7 -2 -19
-2 -25 0 -7 3 -2 5 12 5 14 0 19 -2 13 -5z m-349 -174 c-60 -44 -120 -90 -134
-102 -14 -12 -5 0 20 26 42 45 194 156 214 157 5 0 -40 -36 -100 -81z m231 45
c-24 -19 -84 -50 -70 -37 25 24 69 53 79 53 6 0 2 -8 -9 -16z"/>
<path d="M2198 4038 c-3 -18 -8 -42 -12 -53 -4 -11 -1 -9 7 5 19 33 30 80 18
80 -5 0 -11 -15 -13 -32z"/>
<path d="M3750 3534 c0 -21 4 -45 9 -53 5 -8 7 5 4 35 -7 61 -13 70 -13 18z"/>
<path d="M4333 3562 c-24 -33 -76 -132 -68 -132 2 0 14 19 26 43 12 23 32 57
46 75 14 18 23 35 21 38 -3 2 -14 -9 -25 -24z"/>
<path d="M3431 3397 c-1 -15 40 -67 62 -78 20 -11 19 -9 -3 12 -14 13 -33 35
-42 49 -9 14 -17 21 -17 17z"/>
<path d="M4021 3334 c-7 -30 -11 -58 -8 -61 3 -2 11 21 17 52 6 31 10 59 7 61
-2 2 -9 -21 -16 -52z"/>
<path d="M4151 3314 c0 -11 -12 -42 -25 -68 -13 -26 -19 -45 -12 -43 15 5 48
96 43 116 -3 11 -5 10 -6 -5z"/>
<path d="M4074 2929 c-19 -22 -19 -22 3 -10 24 12 39 31 25 31 -5 0 -17 -10
-28 -21z"/>
<path d="M2606 3098 c-20 -75 -24 -104 -15 -113 7 -7 8 -4 3 9 -5 13 -4 17 4
12 12 -7 21 16 28 69 4 33 -12 51 -20 23z"/>
<path d="M2359 3015 c0 -6 -3 -32 -5 -60 l-5 -49 26 38 26 39 -20 21 c-12 11
-21 16 -22 11z"/>
<path d="M2432 2990 c-7 -11 -8 -20 -4 -20 5 0 7 -20 6 -45 -3 -47 10 -72 13
-27 1 15 5 46 8 70 7 45 -2 54 -23 22z"/>
<path d="M2509 2998 c-1 -7 -2 -43 -3 -80 -1 -50 2 -64 11 -56 14 11 16 148 3
148 -6 0 -10 -6 -11 -12z"/>
<path d="M2352 2864 c-13 -14 -21 -30 -19 -37 4 -9 6 -9 6 1 1 7 6 10 11 7 6
-3 10 -1 10 5 0 6 4 9 9 6 8 -6 21 15 21 35 0 15 -14 9 -38 -17z"/>
<path d="M2630 2548 c0 -19 2 -20 10 -8 13 19 13 30 0 30 -5 0 -10 -10 -10
-22z"/>
<path d="M2630 2489 c0 -5 5 -7 10 -4 6 3 10 8 10 11 0 2 -4 4 -10 4 -5 0 -10
-5 -10 -11z"/>
<path d="M3885 2840 c-3 -6 1 -7 9 -4 18 7 21 14 7 14 -6 0 -13 -4 -16 -10z"/>
<path d="M3360 2817 c0 -5 9 -22 21 -38 11 -16 36 -63 55 -104 19 -41 39 -75
45 -75 6 0 8 3 6 8 -2 4 -21 41 -41 82 -33 69 -86 146 -86 127z"/>
<path d="M3790 2729 c0 -5 5 -7 10 -4 6 3 10 8 10 11 0 2 -4 4 -10 4 -5 0 -10
-5 -10 -11z"/>
<path d="M4154 2588 l-29 -33 33 29 c17 17 32 31 32 33 0 8 -8 1 -36 -29z"/>
<path d="M3494 2567 c3 -10 13 -43 22 -73 9 -31 18 -53 21 -50 6 6 -24 107
-38 126 -9 13 -10 12 -5 -3z"/>
<path d="M4243 2555 c0 -7 6 -11 14 -8 7 3 13 6 13 8 0 2 -6 5 -13 8 -8 3 -14
-1 -14 -8z"/>
<path d="M4035 2481 c-11 -11 -111 -69 -194 -113 -30 -16 -73 -40 -95 -52 -23
-13 -59 -29 -81 -36 -38 -12 -125 -58 -125 -66 0 -2 11 1 24 6 13 5 26 6 29 3
10 -9 47 8 41 19 -4 6 -2 8 4 4 15 -9 83 25 75 37 -4 6 1 8 11 4 9 -4 15 -3
12 1 -7 11 131 85 144 77 5 -3 19 4 32 17 21 21 63 34 52 16 -4 -5 -12 -7 -18
-5 -7 3 -13 -1 -13 -9 0 -9 18 -4 58 18 37 20 54 35 46 40 -6 4 -14 2 -18 -4
-4 -7 -9 -7 -13 0 -3 6 9 19 27 31 17 11 27 21 22 21 -6 0 -15 -4 -20 -9z
m-31 -50 c3 -5 -1 -11 -9 -15 -15 -6 -29 7 -18 18 9 9 21 8 27 -3z"/>
<path d="M3540 2418 c0 -9 5 -20 10 -23 13 -8 13 5 0 25 -8 13 -10 13 -10 -2z"/>
<path d="M3432 2168 c-56 -21 -79 -34 -70 -39 10 -7 10 -9 -1 -9 -8 0 -12 -2
-9 -5 3 -3 16 -1 29 4 21 9 22 10 4 11 -11 1 16 15 60 31 44 17 81 32 84 35 9
9 -17 1 -97 -28z"/>
<path d="M3118 2123 c7 -3 16 -2 19 1 4 3 -2 6 -13 5 -11 0 -14 -3 -6 -6z"/>
<path d="M3295 2110 c11 -5 27 -9 35 -9 9 0 8 4 -5 9 -11 5 -27 9 -35 9 -9 0
-8 -4 5 -9z"/>
<path d="M3240 2102 c20 -3 11 -9 -45 -28 -38 -13 -64 -23 -56 -24 31 -1 151
44 138 52 -6 4 -23 7 -37 6 l-25 -1 25 -5z"/>
<path d="M2963 2063 c26 -2 68 -2 95 0 26 2 4 3 -48 3 -52 0 -74 -1 -47 -3z"/>
<path d="M2848 2053 c12 -2 30 -2 40 0 9 3 -1 5 -23 4 -22 0 -30 -2 -17 -4z"/>
<path d="M2718 2043 c12 -2 30 -2 40 0 9 3 -1 5 -23 4 -22 0 -30 -2 -17 -4z"/>
<path d="M2713 2013 c15 -2 39 -2 55 0 15 2 2 4 -28 4 -30 0 -43 -2 -27 -4z"/>
<path d="M4720 2988 c-27 -35 -50 -67 -50 -73 0 -5 11 4 23 20 12 17 39 49 61
73 21 23 34 42 28 42 -6 0 -34 -28 -62 -62z"/>
<path d="M4983 2880 c-24 -10 -43 -21 -43 -24 0 -4 90 32 99 40 11 10 -18 2
-56 -16z"/>
<path d="M4899 2829 l-24 -20 28 17 c15 9 27 18 27 20 0 8 -8 4 -31 -17z"/>
<path d="M1030 2476 c0 -2 8 -10 18 -17 15 -13 16 -12 3 4 -13 16 -21 21 -21
13z"/>
<path d="M852 4105 c0 -16 2 -22 5 -12 2 9 2 23 0 30 -3 6 -5 -1 -5 -18z"/>
<path d="M1092 3910 c0 -14 2 -19 5 -12 2 6 2 18 0 25 -3 6 -5 1 -5 -13z"/>
<path d="M891 3864 c0 -11 3 -14 6 -6 3 7 2 16 -1 19 -3 4 -6 -2 -5 -13z"/>
<path d="M884 3605 c0 -132 2 -185 3 -117 2 68 2 176 0 240 -1 64 -3 9 -3
-123z"/>
<path d="M1083 3750 c0 -47 3 -139 7 -205 l6 -120 1 100 c0 55 -3 147 -7 205
l-7 105 0 -85z"/>
<path d="M913 3570 c0 -30 2 -43 4 -27 2 15 2 39 0 55 -2 15 -4 2 -4 -28z"/>
<path d="M1052 3595 c0 -16 2 -22 5 -12 2 9 2 23 0 30 -3 6 -5 -1 -5 -18z"/>
<path d="M1063 3515 c0 -22 2 -30 4 -17 2 12 2 30 0 40 -3 9 -5 -1 -4 -23z"/>
<path d="M904 3476 c-3 -7 -4 -33 -2 -57 3 -43 4 -42 8 14 5 58 4 68 -6 43z"/>
<path d="M1073 3405 c0 -33 2 -45 4 -27 2 18 2 45 0 60 -2 15 -4 0 -4 -33z"/>
<path d="M1103 3380 c0 -25 2 -35 4 -22 2 12 2 32 0 45 -2 12 -4 2 -4 -23z"/>
<path d="M1083 3295 c0 -22 2 -30 4 -17 2 12 2 30 0 40 -3 9 -5 -1 -4 -23z"/>
<path d="M1111 3314 c0 -11 3 -14 6 -6 3 7 2 16 -1 19 -3 4 -6 -2 -5 -13z"/>
<path d="M1093 3170 c0 -41 2 -58 4 -37 2 20 2 54 0 75 -2 20 -4 3 -4 -38z"/>
<path d="M843 1965 c0 -44 2 -61 4 -37 2 23 2 59 0 80 -2 20 -4 1 -4 -43z"/>
<path d="M901 2004 c0 -21 4 -48 9 -59 5 -12 6 1 3 35 -7 66 -13 79 -12 24z"/>
<path d="M882 1895 c0 -16 2 -22 5 -12 2 9 2 23 0 30 -3 6 -5 -1 -5 -18z"/>
<path d="M910 1905 c0 -5 5 -17 10 -25 5 -8 10 -10 10 -5 0 6 -5 17 -10 25 -5
8 -10 11 -10 5z"/>
<path d="M1549 1678 c-41 -29 -100 -79 -132 -112 -59 -61 -114 -142 -104 -152
3 -3 10 4 17 15 24 46 132 156 259 264 62 51 47 46 -40 -15z"/>
<path d="M1474 1648 l-29 -33 33 29 c30 28 37 36 29 36 -2 0 -16 -15 -33 -32z"/>
<path d="M1255 1590 c-10 -11 -16 -22 -13 -25 3 -3 13 6 22 20 20 30 16 32 -9
5z"/>
<path d="M3703 1181 c-32 -26 -43 -51 -24 -51 10 0 103 38 110 45 8 8 -22 35
-38 35 -9 -1 -31 -13 -48 -29z"/>
<path d="M3197 1086 c-18 -54 -12 -64 19 -31 18 20 33 25 69 25 l45 0 0 -127
c0 -71 -4 -133 -8 -139 -4 -6 -17 -14 -30 -18 -44 -14 -10 -26 74 -26 82 0
111 13 59 26 -31 8 -37 37 -33 174 l3 105 50 0 c44 0 50 -3 53 -22 6 -38 19
-26 27 23 7 47 0 69 -14 45 -12 -18 -272 -22 -278 -3 -8 23 -21 12 -36 -32z"/>
<path d="M4741 1068 c-21 -68 -17 -96 8 -58 42 63 45 65 130 68 45 2 81 0 81
-5 0 -5 -48 -67 -107 -137 -127 -152 -129 -154 -123 -160 3 -2 76 -6 162 -8
l157 -3 10 42 c6 23 11 52 10 65 0 22 -1 22 -12 3 -7 -10 -24 -32 -39 -47 -25
-26 -31 -28 -112 -28 l-86 0 99 123 c54 67 108 131 120 141 42 38 29 43 -116
42 -101 -1 -137 2 -140 12 -9 26 -23 10 -42 -50z"/>
<path d="M1063 1110 c-86 -7 -123 -33 -123 -85 0 -46 25 -74 95 -105 60 -27
75 -43 75 -79 0 -24 -31 -51 -59 -51 -33 0 -75 25 -91 54 -25 48 -39 21 -24
-51 l6 -29 78 3 c96 3 134 20 149 66 20 59 -4 95 -95 140 -63 32 -78 49 -70
82 12 48 101 41 124 -11 15 -32 32 -31 32 4 0 34 -10 72 -19 71 -3 -1 -39 -5
-78 -9z"/>
<path d="M189 1083 c-47 -25 -56 -34 -72 -78 -31 -83 -7 -165 61 -209 42 -27
117 -39 177 -28 34 6 42 12 51 42 17 51 7 55 -37 15 -45 -41 -78 -45 -127 -15
-81 50 -84 197 -6 259 49 38 118 25 140 -27 17 -43 26 -37 31 23 l4 45 -84 0
c-71 0 -91 -4 -138 -27z"/>
<path d="M595 968 c-33 -79 -67 -150 -77 -160 -29 -29 -21 -38 32 -38 50 0 64
11 34 28 -14 8 -15 14 -4 46 12 36 12 36 69 36 52 0 59 -2 69 -25 15 -32 15
-65 2 -65 -5 0 -10 -4 -10 -10 0 -13 127 -13 135 -1 3 5 -3 12 -14 16 -19 6
-42 52 -106 218 -26 66 -43 97 -54 97 -11 0 -35 -45 -76 -142z m84 3 c18 -55
15 -61 -29 -61 -46 0 -48 6 -19 69 21 48 30 46 48 -8z"/>
<path d="M1361 966 c-35 -80 -72 -152 -82 -162 -26 -23 -15 -34 36 -34 45 0
67 13 40 24 -17 6 -20 39 -5 67 9 15 22 19 70 19 58 0 58 0 70 -36 9 -26 9
-39 1 -47 -21 -21 -10 -27 54 -27 65 0 82 10 46 29 -19 10 -66 113 -111 244
-35 100 -45 93 -119 -77z m73 22 c32 -77 31 -78 -13 -78 -26 0 -41 5 -41 12 0
15 31 98 37 98 2 0 10 -15 17 -32z"/>
<path d="M1870 1096 c0 -8 8 -16 18 -18 15 -4 17 -17 12 -137 -5 -111 -8 -134
-23 -142 -32 -18 -17 -29 38 -29 55 0 73 13 35 25 -19 6 -20 15 -19 123 l0
117 65 -134 c37 -77 68 -131 73 -125 5 5 35 67 67 138 l59 130 3 -113 c2 -91
0 -117 -13 -131 -8 -9 -15 -20 -15 -23 0 -4 29 -7 65 -7 66 0 81 10 45 30 -18
10 -20 21 -20 144 0 130 1 134 22 140 17 4 20 8 11 17 -7 7 -27 9 -55 5 -40
-6 -44 -10 -66 -59 -12 -29 -37 -78 -56 -111 l-33 -58 -50 88 c-27 49 -54 100
-59 112 -8 20 -19 25 -57 28 -35 2 -47 0 -47 -10z"/>
<path d="M2505 1023 c-21 -49 -49 -114 -63 -145 -13 -31 -33 -65 -43 -74 -26
-24 -15 -34 37 -34 48 0 50 1 32 30 -9 13 -9 27 -2 47 9 26 14 28 70 31 l60 3
13 -37 c9 -26 10 -39 2 -47 -21 -21 -10 -27 54 -27 36 0 65 3 65 6 0 4 -11 16
-23 28 -20 19 -127 269 -127 297 0 5 -8 9 -18 9 -14 0 -29 -23 -57 -87z m54
-44 c7 -23 15 -47 18 -55 4 -11 -5 -14 -34 -14 -22 0 -42 3 -45 6 -8 7 32 104
42 104 4 0 12 -18 19 -41z"/>
<path d="M2825 1100 c-19 -9 -19 -9 3 -16 21 -6 22 -10 22 -139 0 -106 -3
-135 -15 -145 -28 -23 -15 -30 55 -30 67 0 92 13 53 27 -10 4 -21 11 -25 17
-11 16 -9 94 2 101 20 12 51 -7 70 -44 26 -51 80 -97 125 -105 20 -4 40 -5 43
-2 3 3 -16 24 -42 47 -26 23 -56 59 -67 81 l-21 40 27 28 c21 22 26 35 23 65
-5 60 -39 79 -146 82 -48 2 -96 -2 -107 -7z m177 -43 c29 -55 -1 -117 -59
-117 l-33 0 0 58 c0 31 4 62 8 68 18 28 67 23 84 -9z"/>
<path d="M3693 1103 c-40 -2 -73 -8 -73 -13 0 -6 8 -10 19 -10 24 0 31 -26 31
-125 0 -120 -8 -152 -37 -160 -46 -11 -12 -25 63 -25 47 0 74 4 74 11 0 6 -9
13 -20 16 -19 5 -20 14 -20 139 l0 134 26 10 c14 6 22 14 19 20 -3 5 -7 9 -8
8 -1 -1 -35 -4 -74 -5z"/>
<path d="M3870 1100 c0 -6 9 -14 20 -17 27 -7 34 -55 27 -172 -5 -79 -10 -99
-26 -112 -27 -22 -17 -29 46 -29 52 0 71 13 34 25 -11 3 -21 19 -25 37 -9 46
-7 166 3 172 5 3 63 -50 129 -118 65 -68 123 -121 128 -117 5 3 10 71 11 151
2 137 4 145 25 162 32 24 20 30 -46 22 -57 -7 -72 -18 -36 -27 18 -5 20 -13
20 -104 l0 -98 -111 112 c-100 101 -116 113 -155 119 -31 4 -44 3 -44 -6z"/>
<path d="M4350 1094 c0 -6 9 -14 20 -17 19 -5 20 -14 20 -140 0 -127 -1 -136
-20 -142 -51 -16 -10 -25 114 -25 130 0 134 1 140 23 9 33 7 67 -3 67 -5 0
-12 -8 -15 -18 -9 -29 -47 -44 -102 -40 l-49 3 0 60 0 60 37 3 c42 4 78 -12
78 -33 0 -8 5 -15 10 -15 6 0 10 25 10 55 0 30 -2 55 -5 55 -3 0 -14 -9 -26
-21 -15 -15 -30 -19 -62 -17 l-42 3 0 60 0 60 55 0 c50 0 56 -2 68 -28 17 -36
32 -26 32 22 l0 39 -130 -1 c-91 -1 -130 -5 -130 -13z"/>
<path d="M1132 469 c-47 -14 -68 -64 -48 -113 17 -42 42 -56 94 -56 27 0 42 5
46 16 9 25 8 26 -19 8 -53 -34 -113 14 -101 81 10 53 69 74 108 38 17 -15 18
-15 18 4 0 31 -38 39 -98 22z"/>
<path d="M2259 458 c-6 -12 -6 -18 1 -18 5 0 10 5 10 10 0 6 14 10 30 10 l30
0 0 -70 c0 -55 -3 -71 -17 -79 -14 -8 -9 -10 24 -11 l42 0 -15 28 c-14 28 -19
88 -8 116 7 19 50 22 56 4 3 -7 7 -4 10 7 4 19 0 20 -75 20 -65 0 -81 -3 -88
-17z"/>
<path d="M3850 470 c-10 -6 -11 -10 -2 -10 16 0 17 -131 0 -148 -9 -9 -5 -12
20 -12 18 0 32 5 32 10 0 6 -4 10 -10 10 -6 0 -10 33 -10 80 0 81 -3 88 -30
70z"/>
<path d="M2465 459 c-10 -15 3 -25 16 -12 7 7 7 13 1 17 -6 3 -14 1 -17 -5z"/>
<path d="M3282 445 c8 -17 8 -42 1 -85 l-10 -60 31 0 c23 0 27 3 18 12 -7 7
-12 25 -12 40 0 23 4 28 23 28 13 0 28 -5 35 -12 9 -9 12 -6 12 17 0 23 -3 26
-12 17 -7 -7 -22 -12 -35 -12 -20 0 -23 5 -23 35 0 32 3 35 28 35 15 0 33 -5
40 -12 9 -9 12 -8 12 5 0 14 -10 17 -60 17 l-60 0 12 -25z"/>
<path d="M3780 455 c0 -9 5 -15 11 -13 6 2 11 8 11 13 0 5 -5 11 -11 13 -6 2
-11 -4 -11 -13z"/>
<path d="M3945 459 c-4 -6 -5 -13 -2 -16 7 -7 27 6 27 18 0 12 -17 12 -25 -2z"/>
<path d="M1277 392 c-33 -36 -8 -92 40 -92 42 0 71 68 41 98 -18 18 -63 14
-81 -6z m67 -25 c8 -21 6 -31 -7 -44 -13 -13 -19 -14 -31 -3 -16 13 -22 61 -9
74 14 14 38 0 47 -27z"/>
<path d="M1415 393 c-4 -12 2 -24 19 -38 14 -12 26 -26 26 -33 0 -18 -28 -14
-39 6 -9 15 -10 15 -11 -5 0 -19 6 -23 29 -23 54 0 64 46 15 68 -26 12 -33 32
-11 32 7 0 18 -5 25 -12 9 -9 12 -8 12 5 0 24 -55 23 -65 0z"/>
<path d="M1529 400 c-1 -3 -2 -26 -2 -52 -2 -44 0 -48 21 -48 19 0 21 3 11 18
-17 28 -3 72 22 72 19 0 21 -5 17 -45 -3 -42 -1 -45 21 -45 19 0 21 3 12 14
-20 23 -10 71 14 71 17 0 20 -7 20 -43 0 -38 2 -42 25 -42 19 0 21 3 12 12 -7
7 -12 29 -12 50 0 43 -20 59 -51 40 -11 -7 -20 -8 -24 -2 -6 9 -84 10 -86 0z"/>
<path d="M1757 392 c-22 -24 -21 -55 1 -75 50 -46 114 13 82 74 -14 25 -61 25
-83 1z m67 -25 c8 -21 6 -31 -7 -44 -13 -13 -19 -14 -31 -3 -16 13 -22 61 -9
74 14 14 38 0 47 -27z"/>
<path d="M1899 394 c-12 -14 -10 -19 14 -38 15 -12 27 -27 27 -34 0 -18 -28
-14 -39 6 -9 15 -10 15 -11 -5 0 -19 6 -23 29 -23 54 0 64 46 15 68 -26 12
-33 32 -11 32 7 0 19 -6 26 -12 11 -11 13 -10 9 2 -6 21 -42 24 -59 4z"/>
<path d="M2450 400 c-10 -6 -11 -10 -2 -10 16 0 16 -62 0 -78 -9 -9 -6 -12 16
-12 22 0 27 4 22 16 -3 9 -6 33 -6 55 0 41 -5 45 -30 29z"/>
<path d="M2547 392 c-45 -50 3 -118 56 -79 16 11 14 12 -15 12 -36 0 -53 30
-21 38 17 4 17 5 1 6 -20 1 -24 16 -6 27 6 4 16 0 23 -9 13 -18 35 -23 35 -9
0 14 -23 32 -40 32 -9 0 -24 -8 -33 -18z"/>
<path d="M2663 403 c-9 -3 -10 -10 -3 -23 5 -10 7 -32 4 -49 -6 -28 -4 -31 20
-31 14 0 26 5 26 10 0 6 -5 10 -11 10 -6 0 -10 15 -9 33 4 59 2 62 -27 50z"/>
<path d="M2707 404 c-8 -8 1 -24 14 -24 5 0 9 7 9 15 0 15 -12 20 -23 9z"/>
<path d="M2779 408 c0 -2 -2 -27 -2 -55 -2 -49 0 -53 20 -53 13 0 23 5 23 10
0 6 -5 10 -11 10 -6 0 -10 15 -9 33 3 47 1 57 -10 57 -5 0 -10 -1 -11 -2z"/>
<path d="M2815 401 c-7 -12 12 -24 25 -16 11 7 4 25 -10 25 -5 0 -11 -4 -15
-9z"/>
<path d="M2890 400 c-8 -5 -11 -12 -7 -17 5 -4 12 -1 16 6 5 7 14 10 20 7 20
-13 11 -31 -20 -43 -21 -8 -30 -17 -27 -30 2 -14 14 -18 51 -20 26 -1 47 2 47
7 0 6 -4 10 -10 10 -5 0 -10 20 -10 45 0 40 -2 45 -22 45 -13 0 -30 -4 -38
-10z m40 -65 c0 -8 -6 -15 -14 -15 -20 0 -29 17 -14 23 22 9 28 7 28 -8z"/>
<path d="M3430 396 c-8 -11 -9 -16 -1 -16 6 0 11 5 11 10 0 6 7 10 15 10 25 0
17 -36 -11 -49 -40 -18 -28 -44 24 -47 23 -1 45 2 48 7 3 5 1 9 -5 9 -5 0 -11
19 -13 43 -3 37 -6 42 -29 45 -14 2 -31 -4 -39 -12z m40 -61 c0 -8 -7 -15 -15
-15 -16 0 -20 12 -8 23 11 12 23 8 23 -8z"/>
<path d="M3551 402 c-7 -2 -6 -10 2 -23 9 -14 9 -26 0 -49 -10 -28 -10 -30 11
-30 20 0 23 5 22 42 -1 33 3 43 17 46 23 5 33 -24 20 -59 -10 -27 -9 -29 12
-29 21 0 22 3 17 45 -4 40 -2 45 16 45 22 0 35 -32 25 -68 -4 -18 -1 -22 16
-22 18 0 20 4 15 33 -13 80 -6 74 -88 73 -41 0 -80 -2 -85 -4z"/>
<path d="M3770 400 c-10 -6 -11 -10 -2 -10 16 0 16 -62 0 -78 -9 -9 -6 -12 16
-12 22 0 27 4 22 16 -3 9 -6 33 -6 55 0 41 -5 45 -30 29z"/>
<path d="M3940 408 c-1 -2 -2 -27 -3 -55 -2 -49 -1 -53 20 -53 13 0 23 5 23
10 0 6 -4 10 -10 10 -5 0 -10 20 -10 45 0 25 -4 45 -10 45 -5 0 -10 -1 -10 -2z"/>
<path d="M4025 396 c-17 -13 -18 -15 -3 -16 9 0 18 5 20 12 5 14 28 2 28 -15
0 -7 -14 -18 -31 -24 -47 -18 -36 -48 19 -50 23 0 44 3 48 8 3 5 1 9 -5 9 -5
0 -11 19 -13 43 -2 33 -7 43 -23 45 -11 1 -29 -4 -40 -12z m45 -56 c0 -12 -28
-25 -36 -17 -9 9 6 27 22 27 8 0 14 -5 14 -10z"/>
<path d="M3097 378 c-17 -18 -17 -19 1 -38 18 -19 18 -19 35 1 16 18 16 21 0
38 -17 17 -19 17 -36 -1z"/>
<path d="M2097 376 c-18 -14 -18 -15 0 -35 22 -26 25 -26 41 -1 10 17 10 23
-2 35 -17 18 -16 18 -39 1z"/>
</g>
</svg>
